<svg width="495" height="418" viewBox="0 0 495 418" fill="none" xmlns="http://www.w3.org/2000/svg">
  <path d="M421.456 310.981L368.897 363.54H229.605" stroke="#02D7F2" stroke-width="0.942756"/>
  <path d="M369.604 6V16.6515" stroke="#01AEC9" stroke-width="0.471378"/>
  <path d="M369.604 103.765V114.417" stroke="#01AEC9" stroke-width="0.471378"/>
  <path d="M364.879 114.211L365.808 103.6" stroke="#01AEC9" stroke-width="0.471378"/>
  <path d="M373.4 16.8172L374.329 6.20629" stroke="#01AEC9" stroke-width="0.471378"/>
  <path d="M360.19 113.593L362.04 103.104" stroke="#01AEC9" stroke-width="0.471378"/>
  <path d="M377.167 17.3132L379.017 6.82355" stroke="#01AEC9" stroke-width="0.471378"/>
  <path d="M355.574 112.57L358.331 102.281" stroke="#01AEC9" stroke-width="0.471378"/>
  <path d="M380.878 18.1357L383.635 7.84712" stroke="#01AEC9" stroke-width="0.471378"/>
  <path d="M351.063 111.148L354.707 101.139" stroke="#01AEC9" stroke-width="0.471378"/>
  <path d="M384.501 19.2783L388.144 9.26919" stroke="#01AEC9" stroke-width="0.471378"/>
  <path d="M346.694 109.338L351.196 99.6844" stroke="#01AEC9" stroke-width="0.471378"/>
  <path d="M388.012 20.7324L392.514 11.0789" stroke="#01AEC9" stroke-width="0.471378"/>
  <path d="M342.5 107.154L347.826 97.9299" stroke="#01AEC9" stroke-width="0.471378"/>
  <path d="M391.383 22.487L396.709 13.2626" stroke="#01AEC9" stroke-width="0.471378"/>
  <path d="M338.511 104.613L344.621 95.8882" stroke="#01AEC9" stroke-width="0.471378"/>
  <path d="M394.587 24.5287L400.696 15.8035" stroke="#01AEC9" stroke-width="0.471378"/>
  <path d="M334.759 101.735L341.606 93.5751" stroke="#01AEC9" stroke-width="2.35689"/>
  <path d="M397.602 26.8419L404.448 18.6824" stroke="#01AEC9" stroke-width="0.471378"/>
  <path d="M331.273 98.5396L338.805 91.0079" stroke="#01AEC9" stroke-width="2.35689"/>
  <path d="M400.404 29.4088L407.936 21.877" stroke="#01AEC9" stroke-width="0.471378"/>
  <path d="M328.078 95.053L336.238 88.2064" stroke="#01AEC9" stroke-width="2.35689"/>
  <path d="M402.971 32.2106L411.13 25.3639" stroke="#01AEC9" stroke-width="0.471378"/>
  <path d="M325.199 91.3012L333.924 85.1917" stroke="#01AEC9" stroke-width="2.35689"/>
  <path d="M405.284 35.225L414.009 29.1156" stroke="#01AEC9" stroke-width="0.471378"/>
  <path d="M322.658 87.3127L331.883 81.987" stroke="#01AEC9" stroke-width="2.35689"/>
  <path d="M407.326 38.43L416.55 33.1043" stroke="#01AEC9" stroke-width="0.471378"/>
  <path d="M320.475 83.1179L330.128 78.6164" stroke="#01AEC9" stroke-width="2.35689"/>
  <path d="M409.08 41.8004L418.734 37.2989" stroke="#01AEC9" stroke-width="2.35689"/>
  <path d="M318.665 78.7488L328.674 75.1058" stroke="#01AEC9" stroke-width="2.35689"/>
  <path d="M410.534 45.3113L420.543 41.6683" stroke="#01AEC9" stroke-width="2.35689"/>
  <path d="M317.243 74.2387L327.531 71.4818" stroke="#01AEC9" stroke-width="2.35689"/>
  <path d="M411.677 48.9351L421.965 46.1783" stroke="#01AEC9" stroke-width="2.35689"/>
  <path d="M316.219 69.6217L326.709 67.7721" stroke="#01AEC9" stroke-width="2.35689"/>
  <path d="M412.5 52.6449L422.989 50.7953" stroke="#01AEC9" stroke-width="2.35689"/>
  <path d="M315.602 64.9331L326.213 64.0047" stroke="#01AEC9" stroke-width="2.35689"/>
  <path d="M412.995 56.4122L423.606 55.4839" stroke="#01AEC9" stroke-width="2.35689"/>
  <path d="M315.396 60.2085H326.047" stroke="#01AEC9" stroke-width="2.35689"/>
  <path d="M413.161 60.2085H423.813" stroke="#01AEC9" stroke-width="2.35689"/>
  <path d="M315.602 55.4839L326.213 56.4122" stroke="#01AEC9" stroke-width="2.35689"/>
  <path d="M412.995 64.0047L423.606 64.9331" stroke="#01AEC9" stroke-width="2.35689"/>
  <path d="M316.219 50.7952L326.709 52.6449" stroke="#01AEC9" stroke-width="2.35689"/>
  <path d="M412.5 67.7721L422.989 69.6217" stroke="#01AEC9" stroke-width="2.35689"/>
  <path d="M317.243 46.1783L327.531 48.9351" stroke="#01AEC9" stroke-width="2.35689"/>
  <path d="M411.677 71.4819L421.965 74.2387" stroke="#01AEC9" stroke-width="2.35689"/>
  <path d="M318.665 41.6681L328.674 45.3111" stroke="#01AEC9" stroke-width="2.35689"/>
  <path d="M410.534 75.1056L420.543 78.7486" stroke="#01AEC9" stroke-width="2.35689"/>
  <path d="M320.475 37.299L330.128 41.8005" stroke="#01AEC9" stroke-width="2.35689"/>
  <path d="M409.08 78.6165L418.734 83.118" stroke="#01AEC9" stroke-width="2.35689"/>
  <path d="M322.658 33.1042L331.883 38.43" stroke="#01AEC9" stroke-width="2.35689"/>
  <path d="M407.326 81.987L416.55 87.3127" stroke="#01AEC9" stroke-width="2.35689"/>
  <path d="M325.199 29.1157L333.924 35.2252" stroke="#01AEC9" stroke-width="2.35689"/>
  <path d="M405.284 85.1919L414.009 91.3014" stroke="#01AEC9" stroke-width="2.35689"/>
  <path d="M328.078 25.3639L336.237 32.2105" stroke="#01AEC9" stroke-width="2.35689"/>
  <path d="M402.97 88.2064L411.13 95.053" stroke="#01AEC9" stroke-width="2.35689"/>
  <path d="M331.273 21.8773L338.805 29.4091" stroke="#01AEC9" stroke-width="2.35689"/>
  <path d="M400.404 91.0079L407.936 98.5396" stroke="#01AEC9" stroke-width="2.35689"/>
  <path d="M334.759 18.6824L341.606 26.8419" stroke="#01AEC9" stroke-width="2.35689"/>
  <path d="M397.602 93.5751L404.448 101.735" stroke="#01AEC9" stroke-width="2.35689"/>
  <path d="M338.511 15.8035L344.621 24.5287" stroke="#01AEC9" stroke-width="2.35689"/>
  <path d="M394.587 95.8883L400.696 104.613" stroke="#01AEC9" stroke-width="2.35689"/>
  <path d="M342.5 13.2626L347.826 22.487" stroke="#01AEC9" stroke-width="2.35689"/>
  <path d="M391.383 97.9299L396.709 107.154" stroke="#01AEC9" stroke-width="2.35689"/>
  <path d="M346.695 11.0789L351.196 20.7324" stroke="#01AEC9" stroke-width="2.35689"/>
  <path d="M388.012 99.6845L392.514 109.338" stroke="#01AEC9" stroke-width="2.35689"/>
  <path d="M351.063 9.26917L354.707 19.2783" stroke="#01AEC9" stroke-width="2.35689"/>
  <path d="M384.501 101.139L388.144 111.148" stroke="#01AEC9" stroke-width="2.35689"/>
  <path d="M355.574 7.84713L358.331 18.1357" stroke="#01AEC9" stroke-width="2.35689"/>
  <path d="M380.878 102.281L383.635 112.57" stroke="#01AEC9" stroke-width="2.35689"/>
  <path d="M360.19 6.82355L362.04 17.3132" stroke="#01AEC9" stroke-width="2.35689"/>
  <path d="M377.167 103.104L379.017 113.593" stroke="#01AEC9" stroke-width="2.35689"/>
  <path d="M364.879 6.20627L365.808 16.8172" stroke="#01AEC9" stroke-width="0.471378"/>
  <path d="M373.4 103.6L374.329 114.211" stroke="#01AEC9" stroke-width="1.14123"/>
  <path d="M421.456 118.684V154.037L434.419 167V258.211" stroke="#02D7F2" stroke-width="0.942756"/>
  <g filter="url(#filter0_b_950_4332)">
  <rect x="352.635" y="34.3066" width="132.925" height="96.0246" rx="7.62812" fill="url(#paint0_linear_950_4332)"/>
  <rect x="352.635" y="34.3066" width="132.925" height="96.0246" rx="7.62812" fill="url(#paint1_linear_950_4332)"/>
  <rect x="352.935" y="34.6066" width="132.325" height="95.4246" rx="7.32812" stroke="#FC59BB" stroke-width="0.6"/>
  <rect x="352.935" y="34.6066" width="132.325" height="95.4246" rx="7.32812" stroke="url(#paint2_linear_950_4332)" stroke-opacity="0.4" stroke-width="0.6"/>
  </g>
  <path d="M419.004 54.3209C412.159 54.3209 405.595 57.04 400.754 61.8801C395.914 66.7201 393.195 73.2846 393.195 80.1295C393.195 86.9743 395.914 93.5388 400.754 98.3789C405.595 103.219 412.159 105.938 419.004 105.938C425.849 105.938 432.413 103.219 437.253 98.3789C442.093 93.5388 444.812 86.9743 444.812 80.1295C444.812 73.2846 442.093 66.7201 437.253 61.8801C432.413 57.04 425.849 54.3209 419.004 54.3209V54.3209ZM396.378 82.0795H403.576C403.691 84.689 404.055 87.2813 404.666 89.822H398.472C397.317 87.3871 396.608 84.7647 396.378 82.0795V82.0795ZM420.954 66.5943V57.7334C423.717 58.7836 425.988 60.8293 427.32 63.4686C427.908 64.4637 428.427 65.4989 428.868 66.5656L420.954 66.5943V66.5943ZM430.188 70.4656C430.853 72.9977 431.249 75.5929 431.363 78.2082H420.954V70.4656H430.188V70.4656ZM417.054 57.7334V66.5943H409.139C409.582 65.5267 410.099 64.4918 410.688 63.4973C412.014 60.8472 414.285 58.7906 417.054 57.7334V57.7334ZM417.054 70.4656V78.2082H406.673C406.788 75.5929 407.184 72.9977 407.849 70.4656H417.054V70.4656ZM403.576 78.1795H396.378C396.608 75.4942 397.317 72.8719 398.472 70.4369H404.666C404.054 72.9766 403.689 75.5695 403.576 78.1795V78.1795ZM406.673 82.0795H417.054V89.822H407.849C407.184 87.2901 406.79 84.6947 406.673 82.0795V82.0795ZM417.083 93.5499V102.411C414.319 101.361 412.048 99.3149 410.716 96.6756C410.128 95.6812 409.61 94.6462 409.168 93.5786L417.083 93.5499V93.5499ZM420.954 102.411V93.6933H428.868C428.426 94.7609 427.909 95.7959 427.32 96.7903C425.988 99.4296 423.717 101.475 420.954 102.526V102.411V102.411ZM420.954 89.6786V81.9361H431.335C431.218 84.5513 430.824 87.1467 430.159 89.6786H420.954ZM434.46 81.9361H441.658C441.429 84.6213 440.72 87.2437 439.565 89.6786H433.342C433.944 87.1838 434.308 84.6402 434.432 82.0795L434.46 81.9361V81.9361ZM434.46 78.0648C434.329 75.502 433.955 72.9575 433.342 70.4656H439.536C440.692 72.9031 441.4 75.5241 441.629 78.2082L434.46 78.0648ZM437.328 66.5943H432.195C431.266 63.9857 429.92 61.5451 428.209 59.3679C431.777 60.9697 434.877 63.4573 437.213 66.5943H437.328V66.5943ZM409.799 59.3679C408.088 61.5451 406.742 63.9857 405.813 66.5943H400.794C403.131 63.4573 406.23 60.9697 409.799 59.3679V59.3679ZM400.766 93.7793H405.813C406.742 96.388 408.088 98.8286 409.799 101.006C406.221 99.3798 403.12 96.8619 400.794 93.6933L400.766 93.7793V93.7793ZM428.18 101.006C429.891 98.8286 431.237 96.388 432.166 93.7793H437.213C434.863 96.8743 431.764 99.3214 428.209 100.891L428.18 101.006Z" fill="black"/>
  <path d="M419.004 54.3209C412.159 54.3209 405.595 57.04 400.754 61.8801C395.914 66.7201 393.195 73.2846 393.195 80.1295C393.195 86.9743 395.914 93.5388 400.754 98.3789C405.595 103.219 412.159 105.938 419.004 105.938C425.849 105.938 432.413 103.219 437.253 98.3789C442.093 93.5388 444.812 86.9743 444.812 80.1295C444.812 73.2846 442.093 66.7201 437.253 61.8801C432.413 57.04 425.849 54.3209 419.004 54.3209V54.3209ZM396.378 82.0795H403.576C403.691 84.689 404.055 87.2813 404.666 89.822H398.472C397.317 87.3871 396.608 84.7647 396.378 82.0795V82.0795ZM420.954 66.5943V57.7334C423.717 58.7836 425.988 60.8293 427.32 63.4686C427.908 64.4637 428.427 65.4989 428.868 66.5656L420.954 66.5943V66.5943ZM430.188 70.4656C430.853 72.9977 431.249 75.5929 431.363 78.2082H420.954V70.4656H430.188V70.4656ZM417.054 57.7334V66.5943H409.139C409.582 65.5267 410.099 64.4918 410.688 63.4973C412.014 60.8472 414.285 58.7906 417.054 57.7334V57.7334ZM417.054 70.4656V78.2082H406.673C406.788 75.5929 407.184 72.9977 407.849 70.4656H417.054V70.4656ZM403.576 78.1795H396.378C396.608 75.4942 397.317 72.8719 398.472 70.4369H404.666C404.054 72.9766 403.689 75.5695 403.576 78.1795V78.1795ZM406.673 82.0795H417.054V89.822H407.849C407.184 87.2901 406.79 84.6947 406.673 82.0795V82.0795ZM417.083 93.5499V102.411C414.319 101.361 412.048 99.3149 410.716 96.6756C410.128 95.6812 409.61 94.6462 409.168 93.5786L417.083 93.5499V93.5499ZM420.954 102.411V93.6933H428.868C428.426 94.7609 427.909 95.7959 427.32 96.7903C425.988 99.4296 423.717 101.475 420.954 102.526V102.411V102.411ZM420.954 89.6786V81.9361H431.335C431.218 84.5513 430.824 87.1467 430.159 89.6786H420.954ZM434.46 81.9361H441.658C441.429 84.6213 440.72 87.2437 439.565 89.6786H433.342C433.944 87.1838 434.308 84.6402 434.432 82.0795L434.46 81.9361V81.9361ZM434.46 78.0648C434.329 75.502 433.955 72.9575 433.342 70.4656H439.536C440.692 72.9031 441.4 75.5241 441.629 78.2082L434.46 78.0648ZM437.328 66.5943H432.195C431.266 63.9857 429.92 61.5451 428.209 59.3679C431.777 60.9697 434.877 63.4573 437.213 66.5943H437.328V66.5943ZM409.799 59.3679C408.088 61.5451 406.742 63.9857 405.813 66.5943H400.794C403.131 63.4573 406.23 60.9697 409.799 59.3679V59.3679ZM400.766 93.7793H405.813C406.742 96.388 408.088 98.8286 409.799 101.006C406.221 99.3798 403.12 96.8619 400.794 93.6933L400.766 93.7793V93.7793ZM428.18 101.006C429.891 98.8286 431.237 96.388 432.166 93.7793H437.213C434.863 96.8743 431.764 99.3214 428.209 100.891L428.18 101.006Z" fill="url(#paint3_linear_950_4332)"/>
  <g filter="url(#filter1_d_950_4332)">
  <path d="M70.4382 159.862V130.45L110.477 90.4004H411.398V159.862L421.456 171.065V251.73L411.398 262.933V297.104L394.998 313.368L376.329 331.275H70.4382V262.933L60.3804 251.73V171.065L70.4382 159.862Z" fill="url(#paint4_radial_950_4332)"/>
  <path d="M70.4382 159.862V130.45L110.477 90.4004H411.398V159.862L421.456 171.065V251.73L411.398 262.933V297.104L394.998 313.368L376.329 331.275H70.4382V262.933L60.3804 251.73V171.065L70.4382 159.862Z" stroke="#02D7F2" stroke-width="2.35689"/>
  </g>
  <rect x="30.1789" y="28.926" width="59.8458" height="43.0659" rx="2.56021" fill="url(#paint5_linear_950_4332)"/>
  <rect x="30.1789" y="28.926" width="59.8458" height="43.0659" rx="2.56021" fill="url(#paint6_linear_950_4332)"/>
  <rect x="30.1789" y="28.926" width="59.8458" height="43.0659" rx="2.56021" stroke="url(#paint7_linear_950_4332)" stroke-width="0.6"/>
  <path d="M52.4543 58.8091C52.0187 58.8097 51.5981 58.6498 51.2726 58.3596L42.2671 50.3368L51.7727 41.868C52.127 41.5642 52.5861 41.412 53.0513 41.4439C53.5164 41.4758 53.9505 41.6895 54.2602 42.0388C54.5698 42.3882 54.7303 42.8454 54.7071 43.3121C54.6839 43.7788 54.4789 44.2178 54.1362 44.5346L47.6241 50.3368L53.636 55.6913C53.9061 55.9315 54.0969 56.2483 54.1831 56.5997C54.2693 56.9512 54.2468 57.3206 54.1186 57.6589C53.9904 57.9972 53.7625 58.2884 53.4652 58.4938C53.168 58.6993 52.8154 58.8092 52.4543 58.8091ZM68.374 58.8056L77.8796 50.3368L68.8741 42.3139C68.5213 41.9998 68.0584 41.839 67.5873 41.867C67.1162 41.8949 66.6755 42.1093 66.362 42.4629C66.0486 42.8165 65.8882 43.2804 65.9161 43.7525C65.944 44.2247 66.1578 44.6664 66.5107 44.9805L72.5226 50.3368L66.0106 56.1372C65.6575 56.4513 65.4434 56.8931 65.4153 57.3654C65.3873 57.8378 65.5476 58.3019 65.8611 58.6557C66.1745 59.0096 66.6153 59.2241 67.0866 59.2522C67.5579 59.2803 68.021 59.1197 68.374 58.8056ZM60.0484 61.333L63.6079 39.9292C63.6534 39.6953 63.6517 39.4546 63.6028 39.2213C63.554 38.9881 63.459 38.767 63.3234 38.5712C63.1879 38.3754 63.0146 38.2088 62.8137 38.0812C62.6129 37.9536 62.3885 37.8677 62.1539 37.8285C61.9194 37.7892 61.6794 37.7975 61.4481 37.8528C61.2167 37.9081 60.9988 38.0094 60.8072 38.1505C60.6156 38.2916 60.4541 38.4698 60.3323 38.6745C60.2106 38.8792 60.131 39.1063 60.0983 39.3424L56.5388 60.7462C56.4933 60.9801 56.495 61.2208 56.5439 61.454C56.5927 61.6873 56.6877 61.9083 56.8233 62.1041C56.9588 62.3 57.1321 62.4666 57.333 62.5942C57.5339 62.7217 57.7582 62.8077 57.9928 62.8469C58.2273 62.8861 58.4673 62.8778 58.6987 62.8225C58.93 62.7672 59.1479 62.666 59.3395 62.5249C59.5311 62.3837 59.6926 62.2056 59.8144 62.0009C59.9361 61.7961 60.0157 61.569 60.0484 61.333Z" fill="url(#paint8_linear_950_4332)"/>
  <g filter="url(#filter2_b_950_4332)">
  <path d="M340.703 243.69C340.703 239.734 343.91 236.527 347.865 236.527H444.316C448.272 236.527 451.478 239.734 451.478 243.69V309.582C451.478 313.537 448.272 316.744 444.316 316.744H347.865C343.91 316.744 340.703 313.537 340.703 309.582V243.69Z" fill="url(#paint9_linear_950_4332)"/>
  <path d="M340.703 243.69C340.703 239.734 343.91 236.527 347.865 236.527H444.316C448.272 236.527 451.478 239.734 451.478 243.69V309.582C451.478 313.537 448.272 316.744 444.316 316.744H347.865C343.91 316.744 340.703 313.537 340.703 309.582V243.69Z" fill="url(#paint10_linear_950_4332)"/>
  <path d="M347.865 236.827H444.316C448.106 236.827 451.178 239.9 451.178 243.69V309.582C451.178 313.372 448.106 316.444 444.316 316.444H347.865C344.075 316.444 341.003 313.372 341.003 309.582V243.69C341.003 239.9 344.075 236.827 347.865 236.827Z" stroke="#EAB52C" stroke-width="0.6"/>
  <path d="M347.865 236.827H444.316C448.106 236.827 451.178 239.9 451.178 243.69V309.582C451.178 313.372 448.106 316.444 444.316 316.444H347.865C344.075 316.444 341.003 313.372 341.003 309.582V243.69C341.003 239.9 344.075 236.827 347.865 236.827Z" stroke="url(#paint11_linear_950_4332)" stroke-opacity="0.3" stroke-width="0.6"/>
  </g>
  <path d="M389.415 290.812L407.679 272.298L399.004 263.504L380.739 282.018C380.488 282.273 380.309 282.593 380.223 282.943L378.198 293.388L388.501 291.336C388.847 291.249 389.163 291.067 389.415 290.812ZM413.575 266.321C414.312 265.574 414.726 264.56 414.726 263.504C414.726 262.447 414.312 261.434 413.575 260.687L410.458 257.527C409.721 256.78 408.721 256.36 407.679 256.36C406.637 256.36 405.637 256.78 404.9 257.527L401.783 260.687L410.458 269.481L413.575 266.321Z" fill="black"/>
  <path d="M389.415 290.812L407.679 272.298L399.004 263.504L380.739 282.018C380.488 282.273 380.309 282.593 380.223 282.943L378.198 293.388L388.501 291.336C388.847 291.249 389.163 291.067 389.415 290.812ZM413.575 266.321C414.312 265.574 414.726 264.56 414.726 263.504C414.726 262.447 414.312 261.434 413.575 260.687L410.458 257.527C409.721 256.78 408.721 256.36 407.679 256.36C406.637 256.36 405.637 256.78 404.9 257.527L401.783 260.687L410.458 269.481L413.575 266.321Z" fill="url(#paint12_linear_950_4332)"/>
  <path d="M375.261 338.346H374.504L362.246 350.15H363.154L375.261 338.346Z" fill="#02D7F2"/>
  <path d="M370.418 338.346H369.661L357.403 350.15H358.311L370.418 338.346Z" fill="#02D7F2"/>
  <path d="M365.575 338.346H364.818L352.56 350.15H353.468L365.575 338.346Z" fill="#02D7F2"/>
  <path d="M360.732 338.346H359.976L347.717 350.15H348.625L360.732 338.346Z" fill="#02D7F2"/>
  <path d="M355.89 338.346H355.133L342.875 350.15H343.783L355.89 338.346Z" fill="#02D7F2"/>
  <path d="M351.047 338.346H350.29L338.032 350.15H338.94L351.047 338.346Z" fill="#02D7F2"/>
  <path d="M346.204 338.346H345.447L333.189 350.15H334.097L346.204 338.346Z" fill="#02D7F2"/>
  <path d="M341.361 338.346H340.605L328.346 350.15H329.254L341.361 338.346Z" fill="#02D7F2"/>
  <path d="M336.518 338.346H335.762L323.503 350.15H324.411L336.518 338.346Z" fill="#02D7F2"/>
  <path d="M331.676 338.346H330.919L318.661 350.15H319.569L331.676 338.346Z" fill="#02D7F2"/>
  <path d="M326.833 338.346H326.076L313.818 350.15H314.726L326.833 338.346Z" fill="#02D7F2"/>
  <path d="M321.99 338.346H321.233L308.975 350.15H309.883L321.99 338.346Z" fill="#02D7F2"/>
  <path d="M317.147 338.346H316.39L304.132 350.15H305.04L317.147 338.346Z" fill="#02D7F2"/>
  <path d="M312.304 338.346H311.547L299.289 350.15H300.197L312.304 338.346Z" fill="#02D7F2"/>
  <path d="M307.461 338.346H306.705L294.446 350.15H295.354L307.461 338.346Z" fill="#02D7F2"/>
  <path d="M302.619 338.346H301.862L289.604 350.15H290.512L302.619 338.346Z" fill="#02D7F2"/>
  <path d="M297.776 338.346H297.019L284.761 350.15H285.669L297.776 338.346Z" fill="#02D7F2"/>
  <path d="M292.933 338.346H292.176L279.918 350.15H280.826L292.933 338.346Z" fill="#02D7F2"/>
  <path d="M288.09 338.346H287.334L275.075 350.15H275.983L288.09 338.346Z" fill="#02D7F2"/>
  <path d="M283.247 338.346H282.491L270.232 350.15H271.14L283.247 338.346Z" fill="#02D7F2"/>
  <path d="M278.405 338.346H277.648L265.39 350.15H266.298L278.405 338.346Z" fill="#02D7F2"/>
  <path d="M273.562 338.346H272.805L260.547 350.15H261.455L273.562 338.346Z" fill="#02D7F2"/>
  <path d="M268.719 338.346H267.962L255.704 350.15H256.612L268.719 338.346Z" fill="#02D7F2"/>
  <path d="M263.876 338.346H263.12L250.861 350.15H251.769L263.876 338.346Z" fill="#02D7F2"/>
  <path d="M259.034 338.346H258.277L246.019 350.15H246.927L259.034 338.346Z" fill="#02D7F2"/>
  <path d="M254.191 338.346H253.434L241.176 350.15H242.084L254.191 338.346Z" fill="#02D7F2"/>
  <path d="M249.348 338.346H248.591L236.333 350.15H237.241L249.348 338.346Z" fill="#02D7F2"/>
  <path d="M244.505 338.346H243.749L231.49 350.15H232.398L244.505 338.346Z" fill="#02D7F2"/>
  <path d="M164 213.177H163.674L158.388 218.267H158.779L164 213.177Z" fill="#16ACBF"/>
  <path d="M161.911 213.177H161.585L156.299 218.267H156.69L161.911 213.177Z" fill="#16ACBF"/>
  <path d="M159.823 213.177H159.497L154.21 218.267H154.602L159.823 213.177Z" fill="#16ACBF"/>
  <path d="M157.735 213.177H157.408L152.122 218.267H152.514L157.735 213.177Z" fill="#16ACBF"/>
  <path d="M155.646 213.177H155.32L150.034 218.267H150.425L155.646 213.177Z" fill="#16ACBF"/>
  <path d="M153.558 213.177H153.232L147.945 218.267H148.337L153.558 213.177Z" fill="#16ACBF"/>
  <path d="M151.47 213.177H151.143L145.857 218.267H146.249L151.47 213.177Z" fill="#16ACBF"/>
  <path d="M149.381 213.177H149.055L143.769 218.267H144.16L149.381 213.177Z" fill="#16ACBF"/>
  <path d="M147.293 213.177H146.966L141.68 218.267H142.072L147.293 213.177Z" fill="#16ACBF"/>
  <path d="M145.204 213.177H144.878L139.592 218.267H139.983L145.204 213.177Z" fill="#16ACBF"/>
  <path d="M143.116 213.177H142.79L137.503 218.267H137.895L143.116 213.177Z" fill="#16ACBF"/>
  <path d="M141.027 213.177H140.701L135.415 218.267H135.806L141.027 213.177Z" fill="#16ACBF"/>
  <path d="M138.939 213.177H138.612L133.326 218.267H133.718L138.939 213.177Z" fill="#16ACBF"/>
  <path d="M136.85 213.177H136.524L131.238 218.267H131.629L136.85 213.177Z" fill="#16ACBF"/>
  <path d="M134.762 213.177H134.436L129.149 218.267H129.541L134.762 213.177Z" fill="#16ACBF"/>
  <path d="M132.674 213.177H132.347L127.061 218.267H127.453L132.674 213.177Z" fill="#16ACBF"/>
  <path d="M130.585 213.177H130.259L124.973 218.267H125.364L130.585 213.177Z" fill="#16ACBF"/>
  <path d="M128.497 213.177H128.171L122.884 218.267H123.276L128.497 213.177Z" fill="#16ACBF"/>
  <path d="M126.409 213.177H126.082L120.796 218.267H121.187L126.409 213.177Z" fill="#16ACBF"/>
  <path d="M124.32 213.177H123.994L118.708 218.267H119.099L124.32 213.177Z" fill="#16ACBF"/>
  <path d="M122.232 213.177H121.905L116.619 218.267H117.011L122.232 213.177Z" fill="#16ACBF"/>
  <path d="M120.143 213.177H119.817L114.53 218.267H114.922L120.143 213.177Z" fill="#16ACBF"/>
  <path d="M118.055 213.177H117.728L112.442 218.267H112.833L118.055 213.177Z" fill="#16ACBF"/>
  <path d="M115.966 213.177H115.64L110.354 218.267H110.745L115.966 213.177Z" fill="#16ACBF"/>
  <path d="M113.878 213.177H113.552L108.266 218.267H108.657L113.878 213.177Z" fill="#16ACBF"/>
  <path d="M111.789 213.177H111.463L106.177 218.267H106.568L111.789 213.177Z" fill="#16ACBF"/>
  <path d="M109.701 213.177H109.375L104.088 218.267H104.48L109.701 213.177Z" fill="#16ACBF"/>
  <path d="M107.613 213.177H107.286L102 218.267H102.392L107.613 213.177Z" fill="#16ACBF"/>
  <rect x="283.664" y="130.468" width="67.2043" height="49.5777" rx="3.1736" fill="url(#paint13_linear_950_4332)"/>
  <rect x="142.032" y="130.468" width="67.2043" height="49.5777" rx="3.1736" fill="url(#paint14_linear_950_4332)"/>
  <rect x="212.848" y="236.847" width="67.2043" height="49.5777" rx="3.1736" fill="url(#paint15_linear_950_4332)"/>
  <rect x="212.848" y="183.657" width="67.2043" height="49.5777" rx="3.1736" fill="url(#paint16_linear_950_4332)"/>
  <rect x="212.848" y="130.468" width="67.2043" height="49.5777" rx="3.1736" fill="url(#paint17_linear_950_4332)"/>
  <path d="M58.4946 142.252L70.279 130.468V160.872L60.6158 170.535V234.407L46.2388 220.03V166.528L58.4946 154.272V142.252Z" fill="#02D7F2"/>
  <path d="M235.733 377.917L228.662 370.847H242.803L235.733 377.917Z" fill="#02D7F2"/>
  <path d="M439.368 161.083L432.297 154.013H446.439L439.368 161.083Z" fill="#02D7F2"/>
  <rect x="441.725" y="175.696" width="10.8417" height="7.07067" transform="rotate(90 441.725 175.696)" fill="#02D7F2"/>
  <rect x="441.725" y="193.137" width="10.8417" height="7.07067" transform="rotate(90 441.725 193.137)" fill="#02D7F2"/>
  <rect x="441.725" y="210.578" width="10.8417" height="7.07067" transform="rotate(90 441.725 210.578)" fill="#02D7F2"/>
  <path d="M280.609 406.848L276.271 406.848L276.271 402.51L280.609 406.848Z" fill="#02D7F2"/>
  <path d="M369.701 402.51L369.701 406.848L365.363 406.848L369.701 402.51Z" fill="#02D7F2"/>
  <path d="M365.363 373.673L369.701 373.673L369.701 378.01L365.363 373.673Z" stroke="#02D7F2"/>
  <path d="M276.271 377.541V373.204H280.609L276.271 377.541Z" fill="#02D7F2"/>
  <path d="M297.833 394.222L310.276 394.222" stroke="#02D7F2" stroke-width="0.468904"/>
  <path d="M304.054 388V400.442" stroke="#02D7F2" stroke-width="0.468904"/>
  <path d="M315.118 388.667L326.225 399.775" stroke="#02D7F2" stroke-width="0.468904"/>
  <path d="M326.225 388.667L315.118 399.775" stroke="#02D7F2" stroke-width="0.468904"/>
  <rect x="331.368" y="399.613" width="10.7848" height="10.7848" transform="rotate(-90 331.368 399.613)" stroke="#02D7F2" stroke-width="0.468904"/>
  <rect x="102" y="233" width="35" height="1" fill="#16ACBF"/>
  <rect x="106" y="229" width="64" height="1" fill="#16ACBF"/>
  <rect x="106" y="225" width="73" height="1" fill="#16ACBF"/>
  <rect x="102" y="237" width="64" height="1" fill="#16ACBF"/>
  <rect x="102" y="242" width="37" height="1" fill="#16ACBF"/>
  <rect x="104" y="246" width="22" height="1" fill="#16ACBF"/>
  <rect x="104" y="251" width="79" height="1" fill="#16ACBF"/>
  <rect x="104" y="255" width="58" height="1" fill="#16ACBF"/>
  <rect x="104" y="265" width="84" height="1" fill="#16ACBF"/>
  <rect x="104" y="278" width="84" height="1" fill="#16ACBF"/>
  <rect x="104" y="282" width="63" height="1" fill="#16ACBF"/>
  <g filter="url(#filter3_b_950_4332)">
  <rect x="9" y="260.568" width="152.255" height="110.177" rx="11.3065" fill="url(#paint18_linear_950_4332)"/>
  <rect x="9" y="260.568" width="152.255" height="110.177" rx="11.3065" fill="url(#paint19_linear_950_4332)"/>
  <rect x="9.4" y="260.968" width="151.455" height="109.377" rx="10.9065" stroke="#9CD33B" stroke-width="0.8"/>
  <rect x="9.4" y="260.968" width="151.455" height="109.377" rx="10.9065" stroke="url(#paint20_linear_950_4332)" stroke-opacity="0.8" stroke-width="0.8"/>
  </g>
  <path d="M72.2584 350.235C67.3556 350.235 63.5599 349.811 60.8713 348.962C58.2354 348.113 56.4166 346.786 55.415 344.982C54.4661 343.231 53.9916 340.975 53.9916 338.216V327.152C53.9916 325.507 53.5699 324.18 52.7264 323.172C51.8829 322.164 50.7231 321.448 49.247 321.023C47.8236 320.598 46.163 320.386 44.2651 320.386V309.959C46.163 309.959 47.8236 309.747 49.247 309.322C50.7231 308.898 51.8829 308.181 52.7264 307.173C53.5699 306.112 53.9916 304.785 53.9916 303.193V291.97C53.9916 289.9 54.2552 288.123 54.7824 286.637C55.3096 285.098 56.2321 283.851 57.5501 282.896C58.868 281.941 60.7132 281.224 63.0855 280.747C65.4578 280.269 68.5154 280.03 72.2584 280.03V289.741C70.9932 289.741 69.8334 289.874 68.779 290.139C67.7247 290.404 66.8548 290.882 66.1695 291.572C65.5369 292.209 65.2206 293.243 65.2206 294.676V305.74C65.2206 308.553 64.4298 310.675 62.8482 312.108C61.3194 313.541 59.0789 314.469 56.1267 314.894V315.372C59.0789 315.796 61.3194 316.725 62.8482 318.157C64.4298 319.59 65.2206 321.686 65.2206 324.446V335.589C65.2206 337.022 65.5369 338.057 66.1695 338.694C66.8548 339.383 67.7247 339.835 68.779 340.047C69.8861 340.312 71.0459 340.471 72.2584 340.524V350.235Z" fill="black"/>
  <path d="M72.2584 350.235C67.3556 350.235 63.5599 349.811 60.8713 348.962C58.2354 348.113 56.4166 346.786 55.415 344.982C54.4661 343.231 53.9916 340.975 53.9916 338.216V327.152C53.9916 325.507 53.5699 324.18 52.7264 323.172C51.8829 322.164 50.7231 321.448 49.247 321.023C47.8236 320.598 46.163 320.386 44.2651 320.386V309.959C46.163 309.959 47.8236 309.747 49.247 309.322C50.7231 308.898 51.8829 308.181 52.7264 307.173C53.5699 306.112 53.9916 304.785 53.9916 303.193V291.97C53.9916 289.9 54.2552 288.123 54.7824 286.637C55.3096 285.098 56.2321 283.851 57.5501 282.896C58.868 281.941 60.7132 281.224 63.0855 280.747C65.4578 280.269 68.5154 280.03 72.2584 280.03V289.741C70.9932 289.741 69.8334 289.874 68.779 290.139C67.7247 290.404 66.8548 290.882 66.1695 291.572C65.5369 292.209 65.2206 293.243 65.2206 294.676V305.74C65.2206 308.553 64.4298 310.675 62.8482 312.108C61.3194 313.541 59.0789 314.469 56.1267 314.894V315.372C59.0789 315.796 61.3194 316.725 62.8482 318.157C64.4298 319.59 65.2206 321.686 65.2206 324.446V335.589C65.2206 337.022 65.5369 338.057 66.1695 338.694C66.8548 339.383 67.7247 339.835 68.779 340.047C69.8861 340.312 71.0459 340.471 72.2584 340.524V350.235Z" fill="url(#paint21_linear_950_4332)"/>
  <path d="M96.9206 340.524C98.1858 340.471 99.3456 340.312 100.4 340.047C101.454 339.835 102.298 339.383 102.93 338.694C103.616 338.057 103.958 337.022 103.958 335.589V324.446C103.958 321.686 104.723 319.59 106.252 318.157C107.833 316.725 110.1 315.796 113.052 315.372V314.894C110.153 314.469 107.912 313.541 106.331 312.108C104.749 310.675 103.958 308.553 103.958 305.74V294.676C103.958 293.243 103.616 292.209 102.93 291.572C102.298 290.882 101.454 290.404 100.4 290.139C99.3456 289.874 98.1858 289.741 96.9206 289.741V280.03C100.664 280.03 103.721 280.269 106.094 280.747C108.466 281.224 110.311 281.941 111.629 282.896C112.947 283.851 113.869 285.098 114.397 286.637C114.924 288.123 115.187 289.9 115.187 291.97V303.193C115.187 304.785 115.609 306.112 116.453 307.173C117.296 308.181 118.43 308.898 119.853 309.322C121.329 309.747 123.016 309.959 124.914 309.959V320.386C123.069 320.386 121.408 320.598 119.932 321.023C118.456 321.448 117.296 322.164 116.453 323.172C115.609 324.18 115.187 325.507 115.187 327.152V338.216C115.187 340.975 114.687 343.231 113.685 344.982C112.736 346.786 110.944 348.113 108.308 348.962C105.672 349.811 101.876 350.235 96.9206 350.235V340.524Z" fill="black"/>
  <path d="M96.9206 340.524C98.1858 340.471 99.3456 340.312 100.4 340.047C101.454 339.835 102.298 339.383 102.93 338.694C103.616 338.057 103.958 337.022 103.958 335.589V324.446C103.958 321.686 104.723 319.59 106.252 318.157C107.833 316.725 110.1 315.796 113.052 315.372V314.894C110.153 314.469 107.912 313.541 106.331 312.108C104.749 310.675 103.958 308.553 103.958 305.74V294.676C103.958 293.243 103.616 292.209 102.93 291.572C102.298 290.882 101.454 290.404 100.4 290.139C99.3456 289.874 98.1858 289.741 96.9206 289.741V280.03C100.664 280.03 103.721 280.269 106.094 280.747C108.466 281.224 110.311 281.941 111.629 282.896C112.947 283.851 113.869 285.098 114.397 286.637C114.924 288.123 115.187 289.9 115.187 291.97V303.193C115.187 304.785 115.609 306.112 116.453 307.173C117.296 308.181 118.43 308.898 119.853 309.322C121.329 309.747 123.016 309.959 124.914 309.959V320.386C123.069 320.386 121.408 320.598 119.932 321.023C118.456 321.448 117.296 322.164 116.453 323.172C115.609 324.18 115.187 325.507 115.187 327.152V338.216C115.187 340.975 114.687 343.231 113.685 344.982C112.736 346.786 110.944 348.113 108.308 348.962C105.672 349.811 101.876 350.235 96.9206 350.235V340.524Z" fill="url(#paint22_linear_950_4332)"/>
  <path d="M104 225.5L102 227L102 224L104 225.5Z" fill="#16ACBF"/>
  <path d="M104 229.5L102 231L102 228L104 229.5Z" fill="#16ACBF"/>
  <path d="M339 382L335 378H343L339 382Z" fill="#02D7F2"/>
  <path d="M329 382L325 378H333L329 382Z" fill="#02D7F2"/>
  <path d="M319 382L315 378H323L319 382Z" fill="#02D7F2"/>
  <path d="M227.714 70H226.957L214.699 81.8043H215.607L227.714 70Z" fill="#02D7F2"/>
  <path d="M222.871 70H222.114L209.856 81.8043H210.764L222.871 70Z" fill="#02D7F2"/>
  <path d="M218.028 70H217.271L205.013 81.8043H205.921L218.028 70Z" fill="#02D7F2"/>
  <path d="M213.185 70H212.429L200.17 81.8043H201.078L213.185 70Z" fill="#02D7F2"/>
  <path d="M208.343 70H207.586L195.328 81.8043H196.236L208.343 70Z" fill="#02D7F2"/>
  <path d="M203.5 70H202.743L190.485 81.8043H191.393L203.5 70Z" fill="#02D7F2"/>
  <path d="M198.657 70H197.9L185.642 81.8043H186.55L198.657 70Z" fill="#02D7F2"/>
  <path d="M193.814 70H193.057L180.799 81.8043H181.707L193.814 70Z" fill="#02D7F2"/>
  <path d="M188.971 70H188.214L175.956 81.8043H176.864L188.971 70Z" fill="#02D7F2"/>
  <path d="M184.128 70H183.372L171.113 81.8043H172.021L184.128 70Z" fill="#02D7F2"/>
  <path d="M179.286 70H178.529L166.271 81.8043H167.179L179.286 70Z" fill="#02D7F2"/>
  <path d="M174.443 70H173.686L161.428 81.8043H162.336L174.443 70Z" fill="#02D7F2"/>
  <path d="M169.6 70H168.843L156.585 81.8043H157.493L169.6 70Z" fill="#02D7F2"/>
  <path d="M164.757 70H164L151.742 81.8043H152.65L164.757 70Z" fill="#02D7F2"/>
  <path d="M159.914 70H159.158L146.899 81.8043H147.807L159.914 70Z" fill="#02D7F2"/>
  <path d="M155.072 70H154.315L142.057 81.8043H142.965L155.072 70Z" fill="#02D7F2"/>
  <path d="M150.229 70H149.472L137.214 81.8043H138.122L150.229 70Z" fill="#02D7F2"/>
  <path d="M145.386 70H144.629L132.371 81.8043H133.279L145.386 70Z" fill="#02D7F2"/>
  <path d="M140.543 70H139.787L127.528 81.8043H128.436L140.543 70Z" fill="#02D7F2"/>
  <path d="M135.701 70H134.944L122.686 81.8043H123.594L135.701 70Z" fill="#02D7F2"/>
  <path d="M130.858 70H130.101L117.843 81.8043H118.751L130.858 70Z" fill="#02D7F2"/>
  <path d="M126.015 70H125.258L113 81.8043H113.908L126.015 70Z" fill="#02D7F2"/>
  <defs>
  <filter id="filter0_b_950_4332" x="327.208" y="8.87958" width="183.779" height="146.879" filterUnits="userSpaceOnUse" color-interpolation-filters="sRGB">
  <feFlood flood-opacity="0" result="BackgroundImageFix"/>
  <feGaussianBlur in="BackgroundImage" stdDeviation="12.7135"/>
  <feComposite in2="SourceAlpha" operator="in" result="effect1_backgroundBlur_950_4332"/>
  <feBlend mode="normal" in="SourceGraphic" in2="effect1_backgroundBlur_950_4332" result="shape"/>
  </filter>
  <filter id="filter1_d_950_4332" x="51.6601" y="80.7371" width="378.516" height="258.315" filterUnits="userSpaceOnUse" color-interpolation-filters="sRGB">
  <feFlood flood-opacity="0" result="BackgroundImageFix"/>
  <feColorMatrix in="SourceAlpha" type="matrix" values="0 0 0 0 0 0 0 0 0 0 0 0 0 0 0 0 0 0 127 0" result="hardAlpha"/>
  <feOffset dy="-0.942756"/>
  <feGaussianBlur stdDeviation="3.77102"/>
  <feColorMatrix type="matrix" values="0 0 0 0 0.0629514 0 0 0 0 0.366888 0 0 0 0 0.408333 0 0 0 1 0"/>
  <feBlend mode="normal" in2="BackgroundImageFix" result="effect1_dropShadow_950_4332"/>
  <feBlend mode="normal" in="SourceGraphic" in2="effect1_dropShadow_950_4332" result="shape"/>
  </filter>
  <filter id="filter2_b_950_4332" x="316.829" y="212.653" width="158.523" height="127.964" filterUnits="userSpaceOnUse" color-interpolation-filters="sRGB">
  <feFlood flood-opacity="0" result="BackgroundImageFix"/>
  <feGaussianBlur in="BackgroundImage" stdDeviation="11.937"/>
  <feComposite in2="SourceAlpha" operator="in" result="effect1_backgroundBlur_950_4332"/>
  <feBlend mode="normal" in="SourceGraphic" in2="effect1_backgroundBlur_950_4332" result="shape"/>
  </filter>
  <filter id="filter3_b_950_4332" x="-28.6883" y="222.88" width="227.631" height="185.554" filterUnits="userSpaceOnUse" color-interpolation-filters="sRGB">
  <feFlood flood-opacity="0" result="BackgroundImageFix"/>
  <feGaussianBlur in="BackgroundImage" stdDeviation="18.8441"/>
  <feComposite in2="SourceAlpha" operator="in" result="effect1_backgroundBlur_950_4332"/>
  <feBlend mode="normal" in="SourceGraphic" in2="effect1_backgroundBlur_950_4332" result="shape"/>
  </filter>
  <linearGradient id="paint0_linear_950_4332" x1="419.097" y1="5.22522" x2="419.097" y2="173.463" gradientUnits="userSpaceOnUse">
  <stop stop-color="white" stop-opacity="0.03"/>
  <stop offset="1" stop-color="white" stop-opacity="0"/>
  </linearGradient>
  <linearGradient id="paint1_linear_950_4332" x1="419.249" y1="42.9147" x2="419.212" y2="130.331" gradientUnits="userSpaceOnUse">
  <stop stop-color="#322336"/>
  <stop offset="0.814917" stop-color="#0C1920"/>
  </linearGradient>
  <linearGradient id="paint2_linear_950_4332" x1="419.097" y1="34.3066" x2="419.097" y2="130.331" gradientUnits="userSpaceOnUse">
  <stop offset="0.0834151" stop-color="#3EB4E7"/>
  <stop offset="0.328754" stop-color="#75ECEA"/>
  <stop offset="1" stop-color="#004F59"/>
  </linearGradient>
  <linearGradient id="paint3_linear_950_4332" x1="419.004" y1="54.3209" x2="419.004" y2="80.3075" gradientUnits="userSpaceOnUse">
  <stop stop-color="#D895C1"/>
  <stop offset="1" stop-color="#9053C0"/>
  </linearGradient>
  <radialGradient id="paint4_radial_950_4332" cx="0" cy="0" r="1" gradientUnits="userSpaceOnUse" gradientTransform="translate(241 194) rotate(90) scale(137 205.366)">
  <stop stop-color="#124F6A"/>
  <stop stop-color="#0C5E8C"/>
  <stop offset="0.765234" stop-color="#0F2339"/>
  </radialGradient>
  <linearGradient id="paint5_linear_950_4332" x1="60.1018" y1="15.4016" x2="60.1018" y2="91.9055" gradientUnits="userSpaceOnUse">
  <stop stop-color="#2FD7EE" stop-opacity="0.03"/>
  <stop offset="1" stop-color="white" stop-opacity="0"/>
  </linearGradient>
  <linearGradient id="paint6_linear_950_4332" x1="60.1706" y1="32.5404" x2="60.1541" y2="72.2919" gradientUnits="userSpaceOnUse">
  <stop stop-color="#1E3947"/>
  <stop offset="0.4497" stop-color="#122A38"/>
  <stop offset="0.994792" stop-color="#12222E"/>
  </linearGradient>
  <linearGradient id="paint7_linear_950_4332" x1="60.1018" y1="28.626" x2="60.1018" y2="72.2918" gradientUnits="userSpaceOnUse">
  <stop offset="0.265625" stop-color="#63E3FF"/>
  <stop offset="0.609375" stop-color="#75ECEA"/>
  <stop offset="1" stop-color="#004F59"/>
  </linearGradient>
  <linearGradient id="paint8_linear_950_4332" x1="60.0733" y1="37.8041" x2="60.0733" y2="50.4241" gradientUnits="userSpaceOnUse">
  <stop stop-color="#B1F8F3"/>
  <stop offset="1" stop-color="#6CDCFF"/>
  </linearGradient>
  <linearGradient id="paint9_linear_950_4332" x1="396.091" y1="212.233" x2="396.091" y2="352.775" gradientUnits="userSpaceOnUse">
  <stop stop-color="white" stop-opacity="0.03"/>
  <stop offset="1" stop-color="white" stop-opacity="0"/>
  </linearGradient>
  <linearGradient id="paint10_linear_950_4332" x1="396.217" y1="243.718" x2="396.186" y2="316.744" gradientUnits="userSpaceOnUse">
  <stop stop-color="#323F44"/>
  <stop offset="0.814917" stop-color="#0E2130"/>
  </linearGradient>
  <linearGradient id="paint11_linear_950_4332" x1="396.091" y1="236.527" x2="396.091" y2="316.744" gradientUnits="userSpaceOnUse">
  <stop offset="0.0834151" stop-color="#3EB4E7"/>
  <stop offset="0.328754" stop-color="#75ECEA"/>
  <stop offset="1" stop-color="#004F59"/>
  </linearGradient>
  <linearGradient id="paint12_linear_950_4332" x1="412.202" y1="244.627" x2="396.712" y2="290.886" gradientUnits="userSpaceOnUse">
  <stop stop-color="#FFF07B"/>
  <stop offset="1" stop-color="#FFCD6C"/>
  </linearGradient>
  <linearGradient id="paint13_linear_950_4332" x1="302.544" y1="124.239" x2="328.891" y2="175.715" gradientUnits="userSpaceOnUse">
  <stop stop-color="#6AFFFF"/>
  <stop offset="1" stop-color="#00AEC9"/>
  </linearGradient>
  <linearGradient id="paint14_linear_950_4332" x1="160.912" y1="124.239" x2="187.259" y2="175.715" gradientUnits="userSpaceOnUse">
  <stop stop-color="#6AFFFF"/>
  <stop offset="1" stop-color="#00AEC9"/>
  </linearGradient>
  <linearGradient id="paint15_linear_950_4332" x1="231.728" y1="230.617" x2="258.075" y2="282.093" gradientUnits="userSpaceOnUse">
  <stop stop-color="#6AFFFF"/>
  <stop offset="1" stop-color="#00AEC9"/>
  </linearGradient>
  <linearGradient id="paint16_linear_950_4332" x1="231.728" y1="177.428" x2="258.075" y2="228.904" gradientUnits="userSpaceOnUse">
  <stop stop-color="#6AFFFF"/>
  <stop offset="1" stop-color="#00AEC9"/>
  </linearGradient>
  <linearGradient id="paint17_linear_950_4332" x1="231.728" y1="124.239" x2="258.075" y2="175.715" gradientUnits="userSpaceOnUse">
  <stop stop-color="#6AFFFF"/>
  <stop offset="1" stop-color="#00AEC9"/>
  </linearGradient>
  <linearGradient id="paint18_linear_950_4332" x1="85.1276" y1="227.201" x2="85.1276" y2="420.235" gradientUnits="userSpaceOnUse">
  <stop stop-color="white" stop-opacity="0.03"/>
  <stop offset="1" stop-color="white" stop-opacity="0"/>
  </linearGradient>
  <linearGradient id="paint19_linear_950_4332" x1="85.301" y1="270.445" x2="100.159" y2="391.981" gradientUnits="userSpaceOnUse">
  <stop offset="0.0364583" stop-color="#244647"/>
  <stop offset="0.520833" stop-color="#15313C"/>
  <stop offset="1" stop-color="#0B2534"/>
  </linearGradient>
  <linearGradient id="paint20_linear_950_4332" x1="85.1275" y1="260.568" x2="85.1275" y2="370.746" gradientUnits="userSpaceOnUse">
  <stop offset="0.0834151" stop-color="#3EB4E7"/>
  <stop offset="0.328754" stop-color="#75ECEA"/>
  <stop offset="1" stop-color="#004F59"/>
  </linearGradient>
  <linearGradient id="paint21_linear_950_4332" x1="84.5895" y1="280.03" x2="84.8796" y2="337.471" gradientUnits="userSpaceOnUse">
  <stop stop-color="#7DE487"/>
  <stop offset="1" stop-color="#00737A"/>
  </linearGradient>
  <linearGradient id="paint22_linear_950_4332" x1="84.5895" y1="280.03" x2="84.8796" y2="337.471" gradientUnits="userSpaceOnUse">
  <stop stop-color="#7DE487"/>
  <stop offset="1" stop-color="#00737A"/>
  </linearGradient>
  </defs>
  </svg>
  