<svg xmlns="http://www.w3.org/2000/svg" width="482" height="429" viewBox="0 0 482 429" fill="none">
  <rect x="24.0992" y="24.1019" width="59.8016" height="43.1455" rx="2.73994" fill="url(#paint0_linear_916_828)"/>
  <rect x="24.0992" y="24.1019" width="59.8016" height="43.1455" rx="2.73994" fill="url(#paint1_linear_916_828)"/>
  <rect x="24.0992" y="24.1019" width="59.8016" height="43.1455" rx="2.73994" stroke="url(#paint2_linear_916_828)" stroke-width="0.198352"/>
  <path d="M46.409 53.9631C45.9766 53.9637 45.559 53.8049 45.2359 53.517L36.2969 45.5533L45.7323 37.1469C46.084 36.8454 46.5398 36.6942 47.0015 36.726C47.4633 36.7577 47.8942 36.9697 48.2015 37.3165C48.5089 37.6633 48.6682 38.1171 48.6452 38.5804C48.6222 39.0437 48.4186 39.4794 48.0784 39.7938L41.6144 45.5533L47.582 50.8683C47.8501 51.1067 48.0395 51.4212 48.125 51.77C48.2106 52.1189 48.1882 52.4855 48.061 52.8213C47.9337 53.1571 47.7075 53.4462 47.4124 53.6501C47.1174 53.8541 46.7674 53.9632 46.409 53.9631ZM62.2113 53.9596L71.6468 45.5533L62.7077 37.5896C62.3575 37.2778 61.898 37.1182 61.4304 37.1459C60.9627 37.1736 60.5253 37.3864 60.2141 37.7374C59.903 38.0884 59.7438 38.5489 59.7715 39.0175C59.7991 39.4862 60.0114 39.9247 60.3617 40.2365L66.3293 45.5533L59.8652 51.3109C59.5148 51.6227 59.3023 52.0613 59.2744 52.5301C59.2466 52.9989 59.4057 53.4596 59.7168 53.8109C60.028 54.1621 60.4655 54.3751 60.9333 54.403C61.4011 54.4309 61.8608 54.2714 62.2113 53.9596ZM53.9471 56.4684L57.4803 35.2224C57.5255 34.9902 57.5238 34.7513 57.4753 34.5198C57.4268 34.2883 57.3325 34.0688 57.198 33.8744C57.0634 33.6801 56.8914 33.5147 56.692 33.388C56.4926 33.2614 56.2699 33.1761 56.0371 33.1372C55.8043 33.0982 55.566 33.1065 55.3364 33.1614C55.1068 33.2163 54.8905 33.3167 54.7003 33.4568C54.5101 33.5969 54.3498 33.7738 54.2289 33.977C54.108 34.1802 54.029 34.4056 53.9966 34.6399L50.4633 55.8859C50.4182 56.1181 50.4199 56.357 50.4684 56.5885C50.5169 56.82 50.6112 57.0395 50.7457 57.2338C50.8802 57.4282 51.0523 57.5936 51.2517 57.7203C51.4511 57.8469 51.6737 57.9322 51.9066 57.9711C52.1394 58.01 52.3777 58.0018 52.6073 57.9469C52.8369 57.892 53.0532 57.7916 53.2434 57.6515C53.4336 57.5114 53.5939 57.3345 53.7147 57.1313C53.8356 56.9281 53.9146 56.7027 53.9471 56.4684Z" fill="url(#paint3_linear_916_828)"/>
  <g filter="url(#filter0_b_916_828)">
  <rect x="320.984" y="0.00268555" width="160.019" height="115.597" rx="7.57186" fill="url(#paint4_linear_916_828)"/>
  <rect x="320.984" y="0.00268555" width="160.019" height="115.597" rx="7.57186" fill="url(#paint5_linear_916_828)"/>
  <rect x="321.249" y="0.267185" width="159.49" height="115.068" rx="7.30736" stroke="#FC59BB" stroke-width="0.528999"/>
  <rect x="321.249" y="0.267185" width="159.49" height="115.068" rx="7.30736" stroke="url(#paint6_linear_916_828)" stroke-opacity="0.4" stroke-width="0.528999"/>
  </g>
  <path d="M400.882 24.0964C392.642 24.0964 384.739 27.3698 378.912 33.1964C373.086 39.0229 369.812 46.9255 369.812 55.1655C369.812 63.4055 373.086 71.3081 378.912 77.1346C384.739 82.9612 392.642 86.2346 400.882 86.2346C409.122 86.2346 417.024 82.9612 422.851 77.1346C428.677 71.3081 431.951 63.4055 431.951 55.1655C431.951 46.9255 428.677 39.0229 422.851 33.1964C417.024 27.3698 409.122 24.0964 400.882 24.0964V24.0964ZM373.644 57.5129H382.309C382.447 60.6544 382.886 63.7751 383.621 66.8337H376.164C374.774 63.9024 373.92 60.7455 373.644 57.5129V57.5129ZM403.229 38.8715V28.2045C406.556 29.4687 409.289 31.9314 410.893 35.1087C411.6 36.3066 412.225 37.5528 412.757 38.837L403.229 38.8715V38.8715ZM414.345 43.5319C415.146 46.5801 415.622 49.7042 415.76 52.8526H403.229V43.5319H414.345V43.5319ZM398.534 28.2045V38.8715H389.006C389.539 37.5863 390.162 36.3404 390.87 35.1432C392.467 31.9529 395.201 29.4771 398.534 28.2045V28.2045ZM398.534 43.5319V52.8526H386.037C386.176 49.7042 386.652 46.5801 387.453 43.5319H398.534V43.5319ZM382.309 52.8181H373.644C373.92 49.5855 374.774 46.4286 376.164 43.4973H383.621C382.884 46.5547 382.445 49.6761 382.309 52.8181V52.8181ZM386.037 57.5129H398.534V66.8337H387.453C386.652 63.7857 386.178 60.6612 386.037 57.5129V57.5129ZM398.569 71.3214V81.9885C395.242 80.7242 392.508 78.2615 390.905 75.0842C390.196 73.8871 389.573 72.6412 389.041 71.3559L398.569 71.3214V71.3214ZM403.229 81.9885V71.494H412.757C412.224 72.7793 411.601 74.0251 410.893 75.2223C409.289 78.3996 406.556 80.8623 403.229 82.1265V81.9885V81.9885ZM403.229 66.6611V57.3403H415.726C415.586 60.4886 415.111 63.6131 414.31 66.6611H403.229ZM419.488 57.3403H428.153C427.877 60.5729 427.024 63.7298 425.633 66.6611H418.142C418.867 63.6577 419.306 60.5957 419.454 57.5129L419.488 57.3403V57.3403ZM419.488 52.68C419.33 49.5948 418.88 46.5317 418.142 43.5319H425.599C426.99 46.4662 427.843 49.6214 428.119 52.8526L419.488 52.68ZM422.941 38.8715H416.761C415.643 35.7311 414.023 32.7931 411.963 30.1722C416.259 32.1004 419.99 35.0951 422.803 38.8715H422.941V38.8715ZM389.8 30.1722C387.74 32.7931 386.12 35.7311 385.002 38.8715H378.961C381.773 35.0951 385.505 32.1004 389.8 30.1722V30.1722ZM378.926 71.5976H385.002C386.12 74.738 387.74 77.676 389.8 80.2969C385.493 78.3396 381.76 75.3084 378.961 71.494L378.926 71.5976V71.5976ZM411.928 80.2969C413.988 77.676 415.609 74.738 416.727 71.5976H422.803C419.973 75.3234 416.243 78.2693 411.963 80.1588L411.928 80.2969Z" fill="black"/>
  <path d="M400.882 24.0964C392.642 24.0964 384.739 27.3698 378.912 33.1964C373.086 39.0229 369.812 46.9255 369.812 55.1655C369.812 63.4055 373.086 71.3081 378.912 77.1346C384.739 82.9612 392.642 86.2346 400.882 86.2346C409.122 86.2346 417.024 82.9612 422.851 77.1346C428.677 71.3081 431.951 63.4055 431.951 55.1655C431.951 46.9255 428.677 39.0229 422.851 33.1964C417.024 27.3698 409.122 24.0964 400.882 24.0964V24.0964ZM373.644 57.5129H382.309C382.447 60.6544 382.886 63.7751 383.621 66.8337H376.164C374.774 63.9024 373.92 60.7455 373.644 57.5129V57.5129ZM403.229 38.8715V28.2045C406.556 29.4687 409.289 31.9314 410.893 35.1087C411.6 36.3066 412.225 37.5528 412.757 38.837L403.229 38.8715V38.8715ZM414.345 43.5319C415.146 46.5801 415.622 49.7042 415.76 52.8526H403.229V43.5319H414.345V43.5319ZM398.534 28.2045V38.8715H389.006C389.539 37.5863 390.162 36.3404 390.87 35.1432C392.467 31.9529 395.201 29.4771 398.534 28.2045V28.2045ZM398.534 43.5319V52.8526H386.037C386.176 49.7042 386.652 46.5801 387.453 43.5319H398.534V43.5319ZM382.309 52.8181H373.644C373.92 49.5855 374.774 46.4286 376.164 43.4973H383.621C382.884 46.5547 382.445 49.6761 382.309 52.8181V52.8181ZM386.037 57.5129H398.534V66.8337H387.453C386.652 63.7857 386.178 60.6612 386.037 57.5129V57.5129ZM398.569 71.3214V81.9885C395.242 80.7242 392.508 78.2615 390.905 75.0842C390.196 73.8871 389.573 72.6412 389.041 71.3559L398.569 71.3214V71.3214ZM403.229 81.9885V71.494H412.757C412.224 72.7793 411.601 74.0251 410.893 75.2223C409.289 78.3996 406.556 80.8623 403.229 82.1265V81.9885V81.9885ZM403.229 66.6611V57.3403H415.726C415.586 60.4886 415.111 63.6131 414.31 66.6611H403.229ZM419.488 57.3403H428.153C427.877 60.5729 427.024 63.7298 425.633 66.6611H418.142C418.867 63.6577 419.306 60.5957 419.454 57.5129L419.488 57.3403V57.3403ZM419.488 52.68C419.33 49.5948 418.88 46.5317 418.142 43.5319H425.599C426.99 46.4662 427.843 49.6214 428.119 52.8526L419.488 52.68ZM422.941 38.8715H416.761C415.643 35.7311 414.023 32.7931 411.963 30.1722C416.259 32.1004 419.99 35.0951 422.803 38.8715H422.941V38.8715ZM389.8 30.1722C387.74 32.7931 386.12 35.7311 385.002 38.8715H378.961C381.773 35.0951 385.505 32.1004 389.8 30.1722V30.1722ZM378.926 71.5976H385.002C386.12 74.738 387.74 77.676 389.8 80.2969C385.493 78.3396 381.76 75.3084 378.961 71.494L378.926 71.5976V71.5976ZM411.928 80.2969C413.988 77.676 415.609 74.738 416.727 71.5976H422.803C419.973 75.3234 416.243 78.2693 411.963 80.1588L411.928 80.2969Z" fill="url(#paint7_linear_916_828)"/>
  <g filter="url(#filter1_b_916_828)">
  <circle cx="238.709" cy="214.846" r="185.973" fill="url(#paint8_linear_916_828)" stroke="#03C2E0" stroke-width="2.43427"/>
  </g>
  <path d="M343.956 314.04L345.137 312.8L345.769 313.417L344.597 314.649C344.193 315.073 343.945 315.511 343.852 315.962C343.763 316.415 343.811 316.865 343.997 317.312C344.184 317.764 344.493 318.196 344.925 318.608L345.288 318.953C345.628 319.277 345.969 319.523 346.31 319.693C346.654 319.865 346.992 319.959 347.324 319.974C347.659 319.993 347.983 319.933 348.296 319.795C348.606 319.66 348.901 319.446 349.18 319.152L350.453 317.814L351.098 318.428L349.824 319.765C349.454 320.154 349.051 320.447 348.615 320.643C348.182 320.843 347.733 320.941 347.269 320.939C346.804 320.943 346.34 320.843 345.875 320.639C345.414 320.438 344.968 320.133 344.538 319.724L344.184 319.387C343.754 318.978 343.426 318.546 343.2 318.093C342.976 317.641 342.856 317.182 342.839 316.716C342.82 316.251 342.903 315.791 343.088 315.335C343.274 314.885 343.563 314.453 343.956 314.04ZM350.675 318.872L344.737 313.22L345.486 312.433L351.424 318.085L350.675 318.872Z" fill="white"/>
  <path d="M329.95 328.215L329.385 327.536L332.722 324.759L333.287 325.438L329.95 328.215ZM337.797 331.201L332.553 324.899L333.388 324.204L338.632 330.506L337.797 331.201ZM332.816 330.761L332.25 330.081L335.146 327.672L335.711 328.351L332.816 330.761ZM334.673 333.801L334.103 333.117L337.397 330.376L337.966 331.06L334.673 333.801Z" fill="white"/>
  <path d="M317.477 338.622C317.582 338.783 317.699 338.908 317.83 338.997C317.959 339.092 318.118 339.15 318.306 339.171C318.491 339.193 318.72 339.181 318.993 339.132C319.264 339.086 319.591 339.004 319.977 338.887C320.382 338.766 320.761 338.678 321.115 338.622C321.47 338.569 321.798 338.559 322.097 338.593C322.397 338.626 322.666 338.712 322.905 338.852C323.144 338.992 323.351 339.195 323.525 339.462C323.7 339.73 323.806 340.012 323.843 340.31C323.881 340.609 323.852 340.908 323.757 341.208C323.66 341.513 323.499 341.806 323.275 342.087C323.05 342.368 322.762 342.623 322.41 342.853C321.894 343.189 321.393 343.375 320.905 343.411C320.416 343.452 319.974 343.376 319.578 343.181C319.185 342.99 318.871 342.715 318.637 342.357L319.542 341.766C319.711 342.024 319.914 342.216 320.154 342.342C320.395 342.471 320.664 342.52 320.961 342.487C321.26 342.458 321.581 342.331 321.924 342.108C322.247 341.897 322.483 341.673 322.63 341.439C322.777 341.204 322.848 340.969 322.843 340.735C322.835 340.503 322.761 340.28 322.621 340.066C322.527 339.921 322.411 339.809 322.273 339.728C322.135 339.653 321.968 339.607 321.773 339.591C321.576 339.576 321.349 339.592 321.092 339.638C320.832 339.687 320.535 339.764 320.201 339.87C319.74 340.015 319.323 340.111 318.952 340.161C318.581 340.21 318.249 340.21 317.956 340.159C317.662 340.113 317.401 340.012 317.173 339.856C316.945 339.705 316.743 339.496 316.569 339.229C316.386 338.949 316.278 338.659 316.243 338.359C316.209 338.058 316.244 337.76 316.35 337.462C316.456 337.164 316.628 336.875 316.866 336.594C317.103 336.318 317.403 336.062 317.764 335.826C318.082 335.619 318.423 335.459 318.789 335.346C319.151 335.235 319.515 335.186 319.882 335.198C320.245 335.212 320.586 335.298 320.905 335.458C321.223 335.622 321.494 335.876 321.718 336.218L320.812 336.809C320.658 336.573 320.48 336.4 320.279 336.29C320.079 336.183 319.864 336.126 319.635 336.118C319.403 336.113 319.169 336.149 318.933 336.227C318.696 336.31 318.467 336.423 318.247 336.567C317.93 336.774 317.69 336.993 317.527 337.225C317.364 337.457 317.28 337.691 317.273 337.928C317.264 338.168 317.332 338.399 317.477 338.622Z" fill="white"/>
  <path d="M302.249 347.715L301.281 348.197C301.101 347.708 301.027 347.227 301.059 346.754C301.092 346.281 301.251 345.838 301.537 345.428C301.825 345.02 302.262 344.67 302.85 344.377C303.28 344.163 303.712 344.048 304.145 344.034C304.575 344.021 304.989 344.099 305.389 344.27C305.79 344.443 306.163 344.704 306.508 345.052C306.852 345.405 307.152 345.838 307.408 346.352L307.772 347.083C308.028 347.597 308.193 348.096 308.266 348.579C308.337 349.068 308.32 349.525 308.214 349.952C308.104 350.38 307.908 350.765 307.625 351.107C307.343 351.449 306.975 351.733 306.521 351.959C305.967 352.235 305.446 352.364 304.959 352.347C304.473 352.329 304.031 352.189 303.636 351.924C303.238 351.665 302.894 351.307 302.602 350.848L303.57 350.366C303.787 350.685 304.021 350.935 304.271 351.117C304.523 351.302 304.8 351.403 305.102 351.42C305.404 351.438 305.745 351.352 306.124 351.162C306.45 351 306.707 350.795 306.893 350.547C307.077 350.3 307.195 350.021 307.249 349.709C307.3 349.398 307.288 349.062 307.213 348.701C307.138 348.34 307.003 347.965 306.809 347.575L306.44 346.834C306.261 346.475 306.056 346.156 305.825 345.877C305.59 345.599 305.336 345.38 305.062 345.218C304.789 345.057 304.499 344.967 304.192 344.948C303.886 344.932 303.57 345.006 303.245 345.168C302.831 345.374 302.535 345.603 302.355 345.857C302.175 346.11 302.084 346.39 302.082 346.697C302.076 347.006 302.132 347.345 302.249 347.715Z" fill="white"/>
  <path d="M288.508 359.422L287.491 359.789L285.608 354.572C285.399 353.993 285.354 353.465 285.473 352.987C285.592 352.509 285.83 352.096 286.187 351.747C286.542 351.404 286.968 351.142 287.466 350.962C287.989 350.774 288.496 350.698 288.989 350.736C289.479 350.779 289.917 350.948 290.303 351.244C290.686 351.541 290.981 351.978 291.19 352.558L293.073 357.774L292.061 358.139L290.179 352.923C290.033 352.52 289.84 352.215 289.597 352.007C289.354 351.799 289.078 351.68 288.767 351.648C288.453 351.618 288.119 351.667 287.766 351.794C287.41 351.923 287.122 352.098 286.903 352.321C286.68 352.545 286.542 352.814 286.488 353.129C286.434 353.444 286.48 353.803 286.625 354.205L288.508 359.422Z" fill="white"/>
  <path d="M272.076 359.634L274.099 359.159L274.309 360.006L272.473 360.437C272.17 360.508 271.917 360.622 271.714 360.777C271.512 360.933 271.371 361.12 271.291 361.339C271.208 361.563 271.198 361.808 271.261 362.075C271.33 362.367 271.442 362.591 271.598 362.748C271.751 362.908 271.953 363.004 272.203 363.034C272.45 363.068 272.749 363.044 273.1 362.962L274.657 362.597L272.988 355.482L274.046 355.233L275.918 363.215L273.303 363.828C272.894 363.924 272.519 363.968 272.177 363.959C271.837 363.954 271.535 363.89 271.271 363.767C271.004 363.649 270.78 363.47 270.601 363.23C270.421 362.991 270.288 362.685 270.2 362.312C270.123 361.983 270.138 361.666 270.243 361.359C270.349 361.057 270.533 360.786 270.793 360.548C271.05 360.31 271.371 360.121 271.759 359.98L272.076 359.634ZM271.25 355.889L273.64 355.329L273.244 356.329L271.452 356.75C271.116 356.829 270.844 356.954 270.638 357.126C270.428 357.299 270.285 357.505 270.211 357.747C270.137 357.991 270.135 358.26 270.203 358.552C270.273 358.848 270.386 359.092 270.542 359.282C270.699 359.473 270.904 359.6 271.158 359.664C271.412 359.728 271.718 359.718 272.076 359.634L273.584 359.28L273.772 360.132L271.711 360.616L271.414 360.362C271.023 360.419 270.672 360.385 270.361 360.262C270.052 360.142 269.794 359.955 269.588 359.703C269.379 359.451 269.234 359.154 269.153 358.81C269.037 358.313 269.048 357.867 269.187 357.472C269.322 357.082 269.567 356.751 269.919 356.479C270.273 356.211 270.716 356.014 271.25 355.889Z" fill="white"/>
  <path d="M258.406 366.601L255.71 366.911C255.099 366.982 254.571 366.948 254.129 366.81C253.682 366.672 253.328 366.433 253.066 366.093C252.8 365.757 252.637 365.324 252.576 364.795C252.533 364.422 252.571 364.072 252.688 363.745C252.802 363.422 252.988 363.136 253.247 362.887C253.502 362.642 253.819 362.445 254.199 362.296L254.488 362.144L257.021 361.852L257.134 362.729L255.221 362.949C254.833 362.994 254.518 363.098 254.276 363.262C254.035 363.429 253.862 363.636 253.758 363.883C253.654 364.129 253.618 364.392 253.65 364.671C253.686 364.985 253.779 365.252 253.93 365.472C254.08 365.693 254.294 365.852 254.574 365.948C254.85 366.049 255.195 366.075 255.609 366.027L257.225 365.842L256.39 358.581L257.47 358.457L258.406 366.601ZM252.71 359.004L255.114 362.468L253.991 362.603L251.565 359.204L251.557 359.137L252.71 359.004Z" fill="white"/>
  <path d="M237.589 367.207L240.313 359.739L241.423 359.741L238.286 367.934L237.571 367.933L237.589 367.207ZM235.325 359.732L238.034 367.208L238.05 367.934L237.334 367.933L234.21 359.73L235.325 359.732ZM235.461 362.767L235.462 361.877L240.068 361.884L240.067 362.774L235.461 362.767Z" fill="white"/>
  <path d="M206.256 363.882L210.451 357.13L211.536 357.358L206.789 364.737L206.089 364.589L206.256 363.882ZM205.569 356.102L206.691 363.974L206.558 364.688L205.858 364.541L204.478 355.872L205.569 356.102ZM205.081 359.101L205.265 358.23L209.772 359.179L209.588 360.05L205.081 359.101Z" fill="white"/>
  <path d="M176.47 348.994L175.48 348.559C175.74 348.107 176.062 347.743 176.446 347.464C176.83 347.186 177.272 347.026 177.771 346.982C178.268 346.942 178.817 347.054 179.419 347.318C179.859 347.511 180.223 347.769 180.511 348.093C180.796 348.415 181.002 348.783 181.127 349.199C181.25 349.618 181.289 350.071 181.243 350.56C181.192 351.05 181.051 351.557 180.82 352.083L180.492 352.831C180.261 353.357 179.983 353.803 179.659 354.169C179.329 354.536 178.967 354.816 178.571 355.007C178.172 355.197 177.751 355.293 177.307 355.295C176.864 355.297 176.41 355.196 175.946 354.993C175.379 354.744 174.946 354.427 174.648 354.042C174.349 353.657 174.175 353.227 174.124 352.754C174.069 352.283 174.124 351.789 174.29 351.271L175.279 351.706C175.174 352.077 175.131 352.417 175.152 352.725C175.171 353.037 175.27 353.315 175.45 353.558C175.631 353.801 175.915 354.008 176.303 354.178C176.637 354.324 176.959 354.39 177.269 354.374C177.576 354.357 177.866 354.269 178.141 354.111C178.412 353.951 178.662 353.727 178.891 353.438C179.12 353.149 179.322 352.806 179.497 352.407L179.83 351.649C179.991 351.281 180.105 350.919 180.171 350.563C180.234 350.205 180.24 349.869 180.189 349.556C180.138 349.243 180.021 348.962 179.839 348.714C179.655 348.469 179.397 348.274 179.063 348.127C178.641 347.942 178.274 347.861 177.965 347.885C177.655 347.909 177.381 348.018 177.144 348.214C176.903 348.407 176.679 348.667 176.47 348.994Z" fill="white"/>
  <path d="M160.467 346.137L166.583 341.06L167.54 341.62L160.702 347.117L160.085 346.756L160.467 346.137ZM162.277 338.54L160.85 346.362L160.498 346.997L159.881 346.636L161.315 337.977L162.277 338.54ZM160.866 341.23L161.315 340.462L165.29 342.789L164.841 343.557L160.866 341.23Z" fill="white"/>
  <path d="M147.699 338.69L145.531 337.058C145.039 336.688 144.68 336.3 144.454 335.895C144.225 335.488 144.133 335.07 144.177 334.643C144.216 334.217 144.396 333.791 144.717 333.365C144.943 333.065 145.211 332.837 145.521 332.681C145.826 332.525 146.158 332.446 146.517 332.444C146.871 332.442 147.236 332.518 147.614 332.671L147.928 332.76L149.966 334.294L149.443 335.007L147.905 333.849C147.593 333.614 147.293 333.472 147.005 333.425C146.714 333.38 146.447 333.411 146.202 333.518C145.957 333.624 145.75 333.79 145.58 334.015C145.391 334.267 145.274 334.525 145.231 334.788C145.188 335.052 145.234 335.315 145.37 335.577C145.501 335.84 145.733 336.097 146.066 336.347L147.366 337.326L151.762 331.488L152.63 332.141L147.699 338.69ZM148.802 329.259L148.159 333.427L147.252 332.75L147.835 328.615L147.876 328.561L148.802 329.259Z" fill="white"/>
  <path d="M133.893 327.41L131.928 325.537C131.482 325.113 131.171 324.686 130.993 324.257C130.813 323.826 130.769 323.401 130.863 322.982C130.951 322.563 131.179 322.161 131.547 321.775C131.806 321.503 132.098 321.308 132.425 321.188C132.746 321.069 133.085 321.029 133.441 321.068C133.793 321.108 134.147 321.225 134.505 321.421L134.807 321.545L136.653 323.305L136.052 323.953L134.658 322.624C134.375 322.355 134.093 322.18 133.813 322.099C133.529 322.021 133.26 322.02 133.004 322.098C132.748 322.176 132.523 322.317 132.329 322.521C132.112 322.749 131.966 322.992 131.893 323.248C131.819 323.505 131.835 323.771 131.94 324.048C132.039 324.324 132.24 324.606 132.542 324.893L133.72 326.016L138.762 320.725L139.548 321.475L133.893 327.41ZM136.08 318.169L134.959 322.234L134.136 321.458L135.193 317.418L135.24 317.369L136.08 318.169Z" fill="white"/>
  <path d="M123.771 305.925L124.451 305.36L127.226 308.699L126.546 309.264L123.771 305.925ZM120.781 313.771L127.085 308.53L127.78 309.365L121.476 314.606L120.781 313.771ZM121.224 308.79L121.904 308.224L124.312 311.121L123.632 311.686L121.224 308.79ZM118.183 310.644L118.867 310.076L121.606 313.371L120.922 313.939L118.183 310.644Z" fill="white"/>
  <path d="M110.047 299.543L116.857 294.978L117.462 295.881L110.652 300.446L110.047 299.543Z" fill="white"/>
  <path d="M103.358 288.637L102.087 286.239C101.798 285.695 101.638 285.192 101.605 284.729C101.57 284.263 101.664 283.846 101.885 283.478C102.101 283.108 102.445 282.799 102.916 282.549C103.247 282.373 103.587 282.28 103.934 282.271C104.277 282.259 104.611 282.328 104.937 282.478C105.258 282.627 105.557 282.851 105.834 283.15L106.081 283.363L107.276 285.616L106.5 286.04L105.598 284.339C105.415 283.994 105.203 283.739 104.963 283.573C104.719 283.41 104.463 283.324 104.196 283.317C103.929 283.31 103.671 283.372 103.422 283.504C103.144 283.652 102.929 283.836 102.778 284.056C102.627 284.276 102.558 284.534 102.57 284.829C102.577 285.123 102.678 285.454 102.873 285.822L103.635 287.26L110.092 283.837L110.601 284.797L103.358 288.637ZM108.357 280.563L106.007 284.065L105.472 283.068L107.754 279.57L107.814 279.538L108.357 280.563Z" fill="white"/>
  <path d="M95.2074 269.471L103.155 269.287L103.557 270.321L94.7841 270.385L94.5245 269.719L95.2074 269.471ZM101.343 264.639L95.3689 269.886L94.6983 270.165L94.4386 269.499L100.939 263.6L101.343 264.639ZM98.5667 265.872L99.3957 265.549L101.068 269.84L100.239 270.163L98.5667 265.872Z" fill="white"/>
  <path d="M93.0335 235.852L93.9054 235.706L94.6205 239.988L93.7486 240.134L93.0335 235.852ZM86.4982 241.122L94.5843 239.772L94.7633 240.843L86.6773 242.194L86.4982 241.122ZM89.3905 237.043L90.2624 236.897L90.8829 240.612L90.011 240.758L89.3905 237.043ZM85.8286 237.112L86.7061 236.966L87.4119 241.192L86.5344 241.339L85.8286 237.112Z" fill="white"/>
  <path d="M84.3698 224.078L84.3312 223.026L90.9116 220.097L84.1344 217.663L84.0956 216.606L92.4103 219.636L92.4405 220.458L84.3698 224.078ZM84.3824 224.421L84.3483 223.493L89.3393 223.157L92.5353 223.04L92.5749 224.121L84.3824 224.421ZM84.1173 217.196L84.0832 216.268L92.2757 215.967L92.3154 217.048L89.1194 217.165L84.1173 217.196Z" fill="white"/>
  <path d="M86.6803 185.96L94.7425 187.447L94.5486 188.499L86.4863 187.013L86.6803 185.96ZM87.1579 183.369L88.0328 183.53L86.8846 189.76L86.0097 189.598L87.1579 183.369Z" fill="white"/>
  <path d="M103.717 147.862L102.848 146.147L101.623 147.431L100.992 146.812L102.321 145.581L100.573 144.746L100.963 143.983L102.692 144.93L102.898 143.151L103.783 143.312L103.454 145.085L105.317 144.791L105.466 145.651L103.548 145.841L104.494 147.468L103.717 147.862Z" fill="white"/>
  <path d="M132.147 113.92L130.966 115.158L130.334 114.54L131.508 113.31C131.912 112.886 132.16 112.449 132.253 111.998C132.343 111.544 132.296 111.094 132.11 110.647C131.924 110.195 131.615 109.763 131.183 109.351L130.821 109.005C130.481 108.681 130.141 108.434 129.8 108.264C129.456 108.092 129.118 107.997 128.786 107.981C128.451 107.963 128.127 108.022 127.814 108.159C127.504 108.294 127.209 108.508 126.929 108.802L125.654 110.138L125.011 109.524L126.285 108.187C126.656 107.799 127.059 107.507 127.495 107.311C127.929 107.112 128.378 107.014 128.843 107.016C129.307 107.013 129.771 107.114 130.236 107.318C130.697 107.52 131.142 107.825 131.571 108.234L131.926 108.573C132.355 108.982 132.682 109.414 132.908 109.868C133.131 110.319 133.251 110.778 133.267 111.245C133.286 111.709 133.202 112.169 133.017 112.625C132.831 113.075 132.541 113.507 132.147 113.92ZM125.434 109.08L131.366 114.739L130.616 115.525L124.684 109.866L125.434 109.08Z" fill="white"/>
  <path d="M146.178 99.7583L146.743 100.438L143.403 103.212L142.838 102.532L146.178 99.7583ZM138.335 96.7644L143.572 103.071L142.736 103.766L137.499 97.4586L138.335 96.7644ZM143.315 97.2099L143.88 97.89L140.982 100.296L140.417 99.6163L143.315 97.2099ZM141.462 94.1673L142.031 94.8517L138.734 97.5891L138.166 96.9047L141.462 94.1673Z" fill="white"/>
  <path d="M158.65 89.367C158.546 89.2066 158.429 89.0814 158.298 88.9915C158.169 88.8964 158.011 88.8384 157.822 88.8177C157.637 88.7948 157.408 88.8074 157.135 88.8554C156.865 88.9014 156.537 88.9827 156.151 89.0993C155.746 89.2198 155.367 89.3078 155.013 89.3632C154.658 89.4156 154.33 89.425 154.031 89.3916C153.731 89.3581 153.462 89.2713 153.223 89.1313C152.984 88.9913 152.777 88.7875 152.603 88.5201C152.429 88.2528 152.324 87.97 152.286 87.6718C152.249 87.3736 152.278 87.0746 152.374 86.7748C152.471 86.4697 152.632 86.1768 152.857 85.8961C153.082 85.6154 153.37 85.3603 153.723 85.1309C154.239 84.7951 154.74 84.6095 155.228 84.5742C155.717 84.5338 156.159 84.611 156.554 84.8058C156.948 84.9975 157.261 85.2727 157.495 85.6313L156.589 86.2211C156.421 85.9631 156.217 85.7709 155.978 85.6444C155.737 85.5147 155.468 85.466 155.171 85.4982C154.872 85.5272 154.551 85.6533 154.208 85.8765C153.884 86.0874 153.648 86.3103 153.501 86.545C153.354 86.7797 153.282 87.0143 153.287 87.2486C153.295 87.4808 153.369 87.7039 153.508 87.9178C153.602 88.0625 153.718 88.1752 153.856 88.2558C153.994 88.3313 154.161 88.3773 154.355 88.394C154.553 88.4087 154.78 88.393 155.037 88.3468C155.297 88.2986 155.594 88.2217 155.928 88.1161C156.39 87.9722 156.806 87.8758 157.177 87.8267C157.549 87.7777 157.881 87.7787 158.174 87.8298C158.468 87.8757 158.729 87.9769 158.956 88.1335C159.184 88.2849 159.386 88.4943 159.56 88.7617C159.742 89.0416 159.85 89.3317 159.884 89.632C159.919 89.9322 159.883 90.2311 159.776 90.5288C159.67 90.8264 159.498 91.1155 159.259 91.3961C159.022 91.6715 158.722 91.927 158.361 92.1625C158.043 92.3693 157.701 92.5291 157.336 92.6417C156.973 92.7522 156.609 92.8014 156.242 92.789C155.879 92.7746 155.538 92.6876 155.219 92.528C154.901 92.3631 154.631 92.1093 154.408 91.7664L155.314 91.1766C155.467 91.4125 155.645 91.5857 155.847 91.6962C156.046 91.8035 156.261 91.861 156.49 91.8688C156.722 91.8744 156.956 91.8384 157.192 91.7609C157.429 91.6781 157.658 91.565 157.878 91.4216C158.196 91.2148 158.436 90.9957 158.599 90.7642C158.762 90.5328 158.847 90.2984 158.854 90.0611C158.864 89.8218 158.796 89.5904 158.65 89.367Z" fill="white"/>
  <path d="M173.886 80.2897L174.855 79.8086C175.035 80.2976 175.108 80.7787 175.075 81.252C175.042 81.7253 174.882 82.1673 174.596 82.5778C174.308 82.985 173.87 83.3348 173.281 83.6271C172.851 83.8409 172.419 83.9548 171.986 83.9689C171.556 83.9812 171.142 83.9021 170.743 83.7316C170.342 83.5577 169.969 83.2966 169.624 82.9482C169.281 82.5948 168.982 82.161 168.726 81.6467L168.363 80.9155C168.107 80.4012 167.943 79.9022 167.87 79.4186C167.799 78.9299 167.817 78.4725 167.924 78.0464C168.034 77.6186 168.231 77.2338 168.514 76.8921C168.797 76.5503 169.165 76.2667 169.619 76.0412C170.173 75.7656 170.694 75.6368 171.181 75.6548C171.668 75.6728 172.109 75.814 172.504 76.0786C172.902 76.3381 173.246 76.6973 173.537 77.1563L172.568 77.6374C172.351 77.3179 172.117 77.0672 171.868 76.8853C171.616 76.7 171.34 76.5986 171.038 76.5811C170.735 76.5635 170.394 76.6491 170.015 76.8379C169.689 76.9999 169.432 77.2049 169.245 77.4529C169.062 77.6992 168.942 77.9784 168.888 78.2905C168.837 78.6009 168.849 78.9367 168.923 79.2978C168.998 79.6589 169.132 80.0344 169.326 80.4244L169.694 81.1656C169.873 81.5253 170.078 81.8448 170.309 82.124C170.543 82.4016 170.797 82.6213 171.07 82.7831C171.343 82.9449 171.633 83.0355 171.941 83.0547C172.246 83.0706 172.562 82.9975 172.888 82.8355C173.301 82.63 173.598 82.4008 173.779 82.1477C173.959 81.8947 174.05 81.6146 174.053 81.3074C174.058 80.9985 174.003 80.6593 173.886 80.2897Z" fill="white"/>
  <path d="M187.656 68.6006L188.673 68.2347L190.55 73.4535C190.758 74.0328 190.803 74.5613 190.683 75.0391C190.564 75.5168 190.325 75.9297 189.968 76.2777C189.613 76.6208 189.186 76.882 188.688 77.0611C188.165 77.2491 187.658 77.324 187.165 77.2857C186.675 77.2426 186.237 77.073 185.851 76.7769C185.469 76.4795 185.174 76.0412 184.965 75.462L183.088 70.2431L184.1 69.8792L185.977 75.098C186.122 75.5007 186.316 75.806 186.558 76.014C186.8 76.2221 187.077 76.342 187.388 76.3739C187.702 76.4045 188.036 76.3563 188.389 76.2293C188.745 76.101 189.033 75.9256 189.253 75.7032C189.475 75.4795 189.614 75.2102 189.668 74.8955C189.723 74.5808 189.677 74.2221 189.533 73.8194L187.656 68.6006Z" fill="white"/>
  <path d="M204.081 68.4038L202.058 68.8761L201.848 68.0288L203.685 67.6C203.989 67.5292 204.242 67.4162 204.444 67.2609C204.647 67.1056 204.788 66.9185 204.868 66.6994C204.951 66.4758 204.961 66.2306 204.899 65.9637C204.831 65.6713 204.719 65.4469 204.563 65.2906C204.409 65.1298 204.208 65.0342 203.958 65.0039C203.711 64.969 203.412 64.9926 203.061 65.0745L201.504 65.438L203.165 72.5551L202.107 72.8021L200.243 64.8187L202.859 64.2082C203.268 64.1126 203.643 64.0693 203.985 64.0783C204.325 64.0836 204.627 64.148 204.891 64.2714C205.158 64.3903 205.381 64.5695 205.56 64.8091C205.74 65.0486 205.873 65.3548 205.96 65.7276C206.037 66.0566 206.022 66.3742 205.916 66.6803C205.81 66.9827 205.626 67.253 205.365 67.4911C205.109 67.7284 204.786 67.9173 204.399 68.0578L204.081 68.4038ZM204.903 72.1493L202.513 72.7074L202.909 71.707L204.702 71.2885C205.039 71.21 205.31 71.085 205.517 70.9134C205.727 70.7409 205.87 70.5342 205.944 70.2932C206.018 70.0485 206.021 69.7799 205.953 69.4875C205.884 69.1914 205.771 68.9479 205.615 68.757C205.458 68.5661 205.253 68.4386 204.999 68.3745C204.745 68.3104 204.439 68.3202 204.081 68.4038L202.573 68.7558L202.386 67.9034L204.447 67.4221L204.744 67.6767C205.135 67.62 205.486 67.6537 205.797 67.7778C206.106 67.8983 206.364 68.0849 206.569 68.3376C206.778 68.5895 206.923 68.8872 207.003 69.2308C207.119 69.7279 207.108 70.1739 206.968 70.5687C206.832 70.959 206.587 71.2898 206.235 71.5611C205.881 71.8287 205.437 72.0248 204.903 72.1493Z" fill="white"/>
  <path d="M217.763 61.4534L220.459 61.1463C221.071 61.0766 221.598 61.111 222.041 61.2495C222.487 61.3875 222.841 61.6268 223.103 61.9672C223.368 62.3035 223.53 62.7364 223.591 63.266C223.633 63.639 223.595 63.989 223.478 64.3159C223.363 64.6387 223.177 64.9245 222.918 65.1731C222.663 65.4175 222.345 65.6142 221.965 65.7633L221.677 65.9152L219.142 66.2038L219.031 65.3267L220.944 65.1088C221.332 65.0647 221.647 64.9608 221.889 64.7972C222.131 64.6299 222.304 64.4232 222.408 64.1771C222.512 63.931 222.548 63.6681 222.516 63.3884C222.481 63.0751 222.388 62.808 222.238 62.587C222.088 62.3661 221.874 62.2073 221.595 62.1106C221.319 62.0098 220.974 61.983 220.56 62.0302L218.943 62.2143L219.77 69.4758L218.69 69.5988L217.763 61.4534ZM223.451 69.0565L221.05 65.5898L222.174 65.4561L224.596 68.8581L224.603 68.9253L223.451 69.0565Z" fill="white"/>
  <path d="M238.579 60.8696L235.846 68.3345L234.737 68.3317L237.883 60.1415L238.598 60.1433L238.579 60.8696ZM240.835 68.347L238.134 60.8685L238.119 60.1421L238.834 60.1439L241.95 68.3498L240.835 68.347ZM240.702 65.3118L240.7 66.2014L236.094 66.1898L236.096 65.3002L240.702 65.3118Z" fill="white"/>
  <path d="M269.896 64.2297L265.694 70.9775L264.608 70.7478L269.363 63.3745L270.063 63.5226L269.896 64.2297ZM270.574 72.0105L269.461 64.1376L269.595 63.4235L270.294 63.5716L271.665 72.2414L270.574 72.0105ZM271.065 69.0123L270.881 69.8826L266.375 68.9289L266.559 68.0585L271.065 69.0123Z" fill="white"/>
  <path d="M299.675 79.1511L300.665 79.5867C300.405 80.0381 300.082 80.4027 299.697 80.6804C299.313 80.958 298.871 81.1184 298.372 81.1613C297.875 81.2008 297.326 81.0882 296.725 80.8236C296.285 80.63 295.921 80.3713 295.633 80.0476C295.348 79.7255 295.143 79.3565 295.019 78.9407C294.896 78.5215 294.858 78.0679 294.904 77.5799C294.956 77.09 295.097 76.5822 295.329 76.0566L295.658 75.3093C295.889 74.7837 296.167 74.3381 296.492 73.9726C296.822 73.6052 297.185 73.326 297.581 73.1352C297.98 72.9459 298.401 72.8504 298.845 72.8489C299.288 72.8473 299.742 72.9486 300.206 73.1527C300.773 73.4023 301.205 73.7197 301.503 74.1051C301.801 74.4906 301.975 74.9198 302.025 75.393C302.08 75.8643 302.024 76.3586 301.858 76.876L300.869 76.4405C300.975 76.0689 301.018 75.729 300.998 75.4207C300.979 75.109 300.88 74.8315 300.7 74.5882C300.52 74.3449 300.236 74.1379 299.847 73.967C299.514 73.8203 299.192 73.7545 298.882 73.7697C298.576 73.7864 298.285 73.8738 298.01 74.0318C297.739 74.1913 297.489 74.4154 297.259 74.7039C297.03 74.9925 296.827 75.336 296.652 75.7346L296.318 76.4921C296.156 76.8597 296.042 77.2216 295.976 77.5778C295.912 77.9356 295.906 78.2712 295.957 78.5847C296.008 78.8982 296.124 79.179 296.306 79.4272C296.489 79.672 296.748 79.8678 297.081 80.0145C297.503 80.2005 297.87 80.2817 298.179 80.2581C298.489 80.2345 298.763 80.1253 299 79.9305C299.241 79.7372 299.466 79.4774 299.675 79.1511Z" fill="white"/>
  <path d="M315.676 82.0251L309.555 87.0961L308.598 86.5348L315.442 81.0453L316.058 81.4071L315.676 82.0251ZM313.857 89.6206L315.293 81.8L315.646 81.165L316.262 81.5268L314.819 90.1848L313.857 89.6206ZM315.272 86.9318L314.821 87.6991L310.849 85.3684L311.299 84.6011L315.272 86.9318Z" fill="white"/>
  <path d="M328.439 89.4867L330.605 91.1216C331.096 91.4924 331.455 91.8805 331.68 92.2858C331.909 92.6934 332.001 93.1107 331.956 93.5378C331.916 93.9641 331.736 94.39 331.415 94.8154C331.189 95.115 330.92 95.3428 330.61 95.4988C330.305 95.654 329.973 95.7326 329.614 95.7345C329.26 95.7357 328.894 95.6596 328.516 95.506L328.203 95.4172L326.167 93.8807L326.69 93.1684L328.227 94.3284C328.539 94.5635 328.839 94.7052 329.127 94.7534C329.417 94.7985 329.685 94.7678 329.93 94.6612C330.175 94.5546 330.382 94.3889 330.552 94.1642C330.742 93.9125 330.859 93.655 330.902 93.3916C330.946 93.1282 330.9 92.8653 330.764 92.6029C330.633 92.3398 330.402 92.0827 330.069 91.8317L328.77 90.8514L324.368 96.685L323.5 96.0303L328.439 89.4867ZM327.325 98.9168L327.973 94.7499L328.879 95.4272L328.291 99.5616L328.251 99.6155L327.325 98.9168Z" fill="white"/>
  <path d="M342.237 100.782L344.2 102.657C344.645 103.082 344.956 103.509 345.133 103.938C345.313 104.369 345.356 104.794 345.262 105.213C345.174 105.632 344.945 106.034 344.577 106.42C344.318 106.691 344.025 106.886 343.698 107.005C343.377 107.124 343.038 107.164 342.682 107.124C342.33 107.084 341.976 106.966 341.618 106.77L341.317 106.646L339.472 104.884L340.075 104.237L341.467 105.567C341.749 105.837 342.031 106.012 342.311 106.093C342.595 106.172 342.864 106.172 343.12 106.095C343.376 106.017 343.601 105.876 343.795 105.673C344.013 105.445 344.159 105.203 344.233 104.946C344.306 104.689 344.291 104.423 344.186 104.147C344.087 103.87 343.887 103.588 343.585 103.3L342.409 102.176L337.361 107.461L336.575 106.711L342.237 100.782ZM340.04 110.02L341.165 105.956L341.988 106.734L340.926 110.773L340.879 110.821L340.04 110.02Z" fill="white"/>
  <path d="M352.326 122.275L351.646 122.84L348.874 119.498L349.555 118.934L352.326 122.275ZM355.324 114.434L349.014 119.667L348.321 118.831L354.631 113.597L355.324 114.434ZM354.876 119.414L354.196 119.978L351.791 117.079L352.471 116.515L354.876 119.414ZM357.92 117.563L357.235 118.13L354.499 114.833L355.184 114.265L357.92 117.563Z" fill="white"/>
  <path d="M366.051 128.675L359.236 133.233L358.632 132.329L365.447 127.772L366.051 128.675Z" fill="white"/>
  <path d="M372.71 139.589L373.978 141.988C374.266 142.532 374.426 143.035 374.459 143.498C374.493 143.964 374.399 144.381 374.177 144.749C373.961 145.118 373.617 145.427 373.146 145.676C372.814 145.852 372.474 145.944 372.127 145.954C371.784 145.965 371.45 145.895 371.125 145.745C370.804 145.596 370.505 145.372 370.228 145.073L369.981 144.859L368.789 142.604L369.565 142.181L370.465 143.884C370.648 144.229 370.859 144.484 371.1 144.65C371.344 144.814 371.599 144.9 371.866 144.907C372.133 144.914 372.391 144.852 372.64 144.721C372.919 144.573 373.134 144.39 373.285 144.17C373.436 143.95 373.506 143.692 373.494 143.397C373.487 143.103 373.387 142.772 373.192 142.404L372.431 140.965L365.971 144.381L365.463 143.421L372.71 139.589ZM367.702 147.656L370.056 144.157L370.59 145.155L368.304 148.65L368.244 148.682L367.702 147.656Z" fill="white"/>
  <path d="M380.842 158.762L372.894 158.937L372.493 157.903L381.266 157.848L381.525 158.515L380.842 158.762ZM374.7 163.588L380.681 158.348L381.352 158.069L381.611 158.735L375.104 164.627L374.7 163.588ZM377.478 162.358L376.649 162.68L374.982 158.386L375.811 158.064L377.478 162.358Z" fill="white"/>
  <path d="M382.981 192.383L382.109 192.528L381.399 188.245L382.271 188.101L382.981 192.383ZM389.522 187.12L381.435 188.462L381.257 187.39L389.345 186.048L389.522 187.12ZM386.626 191.197L385.754 191.341L385.137 187.625L386.009 187.481L386.626 191.197ZM390.188 191.131L389.31 191.276L388.609 187.049L389.487 186.904L390.188 191.131Z" fill="white"/>
  <path d="M391.637 204.168L391.674 205.221L385.09 208.142L391.865 210.583L391.902 211.641L383.591 208.601L383.562 207.78L391.637 204.168ZM391.624 203.825L391.657 204.754L386.666 205.083L383.47 205.197L383.431 204.117L391.624 203.825ZM391.881 211.05L391.914 211.979L383.722 212.27L383.683 211.19L386.879 211.076L391.881 211.05Z" fill="white"/>
  <path d="M389.285 242.282L381.224 240.787L381.419 239.735L389.48 241.23L389.285 242.282ZM388.804 244.873L387.93 244.71L389.085 238.482L389.959 238.644L388.804 244.873Z" fill="white"/>
  <path d="M372.207 280.363L373.075 282.079L374.301 280.796L374.932 281.416L373.601 282.645L375.348 283.483L374.958 284.245L373.229 283.296L373.021 285.075L372.136 284.913L372.468 283.141L370.604 283.433L370.456 282.572L372.374 282.384L371.43 280.756L372.207 280.363Z" fill="white"/>
  <path d="M142.356 218.592L185.736 234.28V252.765L126.804 227.801V214.705L142.356 218.592ZM185.736 205.769L142.288 221.73L126.804 225.413V212.317L185.736 187.353V205.769ZM247.601 163.207V262.519H227.207V163.207H247.601ZM278.158 163.207V179.236H197.127V163.207H278.158ZM332.793 221.321L289.072 205.701V187.353L348.481 212.317V225.481L332.793 221.321ZM289.072 234.417L332.862 218.456L348.481 214.705V227.801L289.072 252.765V234.417Z" fill="white"/>
  <path d="M142.356 218.592L185.736 234.28V252.765L126.804 227.801V214.705L142.356 218.592ZM185.736 205.769L142.288 221.73L126.804 225.413V212.317L185.736 187.353V205.769ZM247.601 163.207V262.519H227.207V163.207H247.601ZM278.158 163.207V179.236H197.127V163.207H278.158ZM332.793 221.321L289.072 205.701V187.353L348.481 212.317V225.481L332.793 221.321ZM289.072 234.417L332.862 218.456L348.481 214.705V227.801L289.072 252.765V234.417Z" fill="url(#paint9_linear_916_828)"/>
  <g filter="url(#filter2_b_916_828)">
  <rect x="333" y="268.003" width="109.958" height="79.6249" rx="7.10937" fill="url(#paint10_linear_916_828)"/>
  <rect x="333" y="268.003" width="109.958" height="79.6249" rx="7.10937" fill="url(#paint11_linear_916_828)"/>
  <rect x="333.248" y="268.251" width="109.462" height="79.1282" rx="6.86102" stroke="#EAB52C" stroke-width="0.496688"/>
  <rect x="333.248" y="268.251" width="109.462" height="79.1282" rx="6.86102" stroke="url(#paint12_linear_916_828)" stroke-opacity="0.3" stroke-width="0.496688"/>
  </g>
  <path d="M381.352 321.888L399.482 303.51L390.871 294.781L372.741 313.159C372.492 313.412 372.314 313.729 372.228 314.076L370.219 324.445L380.445 322.408C380.789 322.321 381.103 322.141 381.352 321.888ZM405.335 297.577C406.066 296.835 406.477 295.83 406.477 294.781C406.477 293.732 406.066 292.726 405.335 291.984L402.24 288.848C401.509 288.106 400.517 287.69 399.482 287.69C398.447 287.69 397.455 288.106 396.723 288.848L393.629 291.984L402.24 300.714L405.335 297.577Z" fill="black"/>
  <path d="M381.352 321.888L399.482 303.51L390.871 294.781L372.741 313.159C372.492 313.412 372.314 313.729 372.228 314.076L370.219 324.445L380.445 322.408C380.789 322.321 381.103 322.141 381.352 321.888ZM405.335 297.577C406.066 296.835 406.477 295.83 406.477 294.781C406.477 293.732 406.066 292.726 405.335 291.984L402.24 288.848C401.509 288.106 400.517 287.69 399.482 287.69C398.447 287.69 397.455 288.106 396.723 288.848L393.629 291.984L402.24 300.714L405.335 297.577Z" fill="url(#paint13_linear_916_828)"/>
  <g filter="url(#filter3_b_916_828)">
  <rect y="301.003" width="164.568" height="119.087" rx="11.2231" fill="url(#paint14_linear_916_828)"/>
  <rect y="301.003" width="164.568" height="119.087" rx="11.2231" fill="url(#paint15_linear_916_828)"/>
  <rect x="0.392044" y="301.395" width="163.784" height="118.303" rx="10.8311" stroke="#9CD33B" stroke-width="0.784088"/>
  <rect x="0.392044" y="301.395" width="163.784" height="118.303" rx="10.8311" stroke="url(#paint16_linear_916_828)" stroke-opacity="0.8" stroke-width="0.784088"/>
  </g>
  <path d="M68.3743 397.922C63.075 397.922 58.9724 397.463 56.0663 396.545C53.2172 395.627 51.2514 394.193 50.1687 392.243C49.1431 390.351 48.6302 387.913 48.6302 384.93V372.972C48.6302 371.193 48.1744 369.76 47.2627 368.67C46.351 367.58 45.0974 366.806 43.5019 366.347C41.9634 365.888 40.1685 365.659 38.1172 365.659V354.388C40.1685 354.388 41.9634 354.159 43.5019 353.7C45.0974 353.241 46.351 352.467 47.2627 351.377C48.1744 350.23 48.6302 348.796 48.6302 347.075V334.944C48.6302 332.707 48.9152 330.786 49.485 329.18C50.0548 327.517 51.052 326.169 52.4765 325.136C53.901 324.104 55.8954 323.33 58.4595 322.813C61.0237 322.297 64.3286 322.039 68.3743 322.039V332.535C67.0067 332.535 65.7531 332.679 64.6135 332.965C63.4739 333.252 62.5337 333.768 61.7929 334.514C61.1092 335.202 60.7673 336.321 60.7673 337.869V349.828C60.7673 352.868 59.9126 355.162 58.2031 356.711C56.5507 358.26 54.1289 359.263 50.938 359.722V360.238C54.1289 360.697 56.5507 361.701 58.2031 363.25C59.9126 364.798 60.7673 367.064 60.7673 370.046V382.091C60.7673 383.64 61.1092 384.758 61.7929 385.447C62.5337 386.192 63.4739 386.68 64.6135 386.909C65.8101 387.196 67.0637 387.368 68.3743 387.425V397.922Z" fill="black"/>
  <path d="M68.3743 397.922C63.075 397.922 58.9724 397.463 56.0663 396.545C53.2172 395.627 51.2514 394.193 50.1687 392.243C49.1431 390.351 48.6302 387.913 48.6302 384.93V372.972C48.6302 371.193 48.1744 369.76 47.2627 368.67C46.351 367.58 45.0974 366.806 43.5019 366.347C41.9634 365.888 40.1685 365.659 38.1172 365.659V354.388C40.1685 354.388 41.9634 354.159 43.5019 353.7C45.0974 353.241 46.351 352.467 47.2627 351.377C48.1744 350.23 48.6302 348.796 48.6302 347.075V334.944C48.6302 332.707 48.9152 330.786 49.485 329.18C50.0548 327.517 51.052 326.169 52.4765 325.136C53.901 324.104 55.8954 323.33 58.4595 322.813C61.0237 322.297 64.3286 322.039 68.3743 322.039V332.535C67.0067 332.535 65.7531 332.679 64.6135 332.965C63.4739 333.252 62.5337 333.768 61.7929 334.514C61.1092 335.202 60.7673 336.321 60.7673 337.869V349.828C60.7673 352.868 59.9126 355.162 58.2031 356.711C56.5507 358.26 54.1289 359.263 50.938 359.722V360.238C54.1289 360.697 56.5507 361.701 58.2031 363.25C59.9126 364.798 60.7673 367.064 60.7673 370.046V382.091C60.7673 383.64 61.1092 384.758 61.7929 385.447C62.5337 386.192 63.4739 386.68 64.6135 386.909C65.8101 387.196 67.0637 387.368 68.3743 387.425V397.922Z" fill="url(#paint17_linear_916_828)"/>
  <path d="M95.0309 387.425C96.3984 387.368 97.652 387.196 98.7917 386.909C99.9313 386.68 100.843 386.192 101.527 385.447C102.268 384.758 102.638 383.64 102.638 382.091V370.046C102.638 367.064 103.464 364.798 105.117 363.25C106.826 361.701 109.276 360.697 112.467 360.238V359.722C109.333 359.263 106.911 358.26 105.202 356.711C103.493 355.162 102.638 352.868 102.638 349.828V337.869C102.638 336.321 102.268 335.202 101.527 334.514C100.843 333.768 99.9313 333.252 98.7917 332.965C97.652 332.679 96.3984 332.535 95.0309 332.535V322.039C99.0766 322.039 102.381 322.297 104.946 322.813C107.51 323.33 109.504 324.104 110.929 325.136C112.353 326.169 113.35 327.517 113.92 329.18C114.49 330.786 114.775 332.707 114.775 334.944V347.075C114.775 348.796 115.231 350.23 116.142 351.377C117.054 352.467 118.279 353.241 119.818 353.7C121.413 354.159 123.237 354.388 125.288 354.388V365.659C123.294 365.659 121.499 365.888 119.903 366.347C118.308 366.806 117.054 367.58 116.142 368.67C115.231 369.76 114.775 371.193 114.775 372.972V384.93C114.775 387.913 114.234 390.351 113.151 392.243C112.125 394.193 110.188 395.627 107.339 396.545C104.49 397.463 100.387 397.922 95.0309 397.922V387.425Z" fill="black"/>
  <path d="M95.0309 387.425C96.3984 387.368 97.652 387.196 98.7917 386.909C99.9313 386.68 100.843 386.192 101.527 385.447C102.268 384.758 102.638 383.64 102.638 382.091V370.046C102.638 367.064 103.464 364.798 105.117 363.25C106.826 361.701 109.276 360.697 112.467 360.238V359.722C109.333 359.263 106.911 358.26 105.202 356.711C103.493 355.162 102.638 352.868 102.638 349.828V337.869C102.638 336.321 102.268 335.202 101.527 334.514C100.843 333.768 99.9313 333.252 98.7917 332.965C97.652 332.679 96.3984 332.535 95.0309 332.535V322.039C99.0766 322.039 102.381 322.297 104.946 322.813C107.51 323.33 109.504 324.104 110.929 325.136C112.353 326.169 113.35 327.517 113.92 329.18C114.49 330.786 114.775 332.707 114.775 334.944V347.075C114.775 348.796 115.231 350.23 116.142 351.377C117.054 352.467 118.279 353.241 119.818 353.7C121.413 354.159 123.237 354.388 125.288 354.388V365.659C123.294 365.659 121.499 365.888 119.903 366.347C118.308 366.806 117.054 367.58 116.142 368.67C115.231 369.76 114.775 371.193 114.775 372.972V384.93C114.775 387.913 114.234 390.351 113.151 392.243C112.125 394.193 110.188 395.627 107.339 396.545C104.49 397.463 100.387 397.922 95.0309 397.922V387.425Z" fill="url(#paint18_linear_916_828)"/>
  <defs>
  <filter id="filter0_b_916_828" x="295.745" y="-25.2369" width="210.498" height="166.076" filterUnits="userSpaceOnUse" color-interpolation-filters="sRGB">
  <feFlood flood-opacity="0" result="BackgroundImageFix"/>
  <feGaussianBlur in="BackgroundImage" stdDeviation="12.6198"/>
  <feComposite in2="SourceAlpha" operator="in" result="effect1_backgroundBlur_916_828"/>
  <feBlend mode="normal" in="SourceGraphic" in2="effect1_backgroundBlur_916_828" result="shape"/>
  </filter>
  <filter id="filter1_b_916_828" x="2.83338" y="-21.0294" width="471.751" height="471.751" filterUnits="userSpaceOnUse" color-interpolation-filters="sRGB">
  <feFlood flood-opacity="0" result="BackgroundImageFix"/>
  <feGaussianBlur in="BackgroundImage" stdDeviation="24.3427"/>
  <feComposite in2="SourceAlpha" operator="in" result="effect1_backgroundBlur_916_828"/>
  <feBlend mode="normal" in="SourceGraphic" in2="effect1_backgroundBlur_916_828" result="shape"/>
  </filter>
  <filter id="filter2_b_916_828" x="309.302" y="244.305" width="157.354" height="127.021" filterUnits="userSpaceOnUse" color-interpolation-filters="sRGB">
  <feFlood flood-opacity="0" result="BackgroundImageFix"/>
  <feGaussianBlur in="BackgroundImage" stdDeviation="11.8489"/>
  <feComposite in2="SourceAlpha" operator="in" result="effect1_backgroundBlur_916_828"/>
  <feBlend mode="normal" in="SourceGraphic" in2="effect1_backgroundBlur_916_828" result="shape"/>
  </filter>
  <filter id="filter3_b_916_828" x="-37.4103" y="263.593" width="239.389" height="193.908" filterUnits="userSpaceOnUse" color-interpolation-filters="sRGB">
  <feFlood flood-opacity="0" result="BackgroundImageFix"/>
  <feGaussianBlur in="BackgroundImage" stdDeviation="18.7052"/>
  <feComposite in2="SourceAlpha" operator="in" result="effect1_backgroundBlur_916_828"/>
  <feBlend mode="normal" in="SourceGraphic" in2="effect1_backgroundBlur_916_828" result="shape"/>
  </filter>
  <linearGradient id="paint0_linear_916_828" x1="54" y1="10.8758" x2="54" y2="86.8155" gradientUnits="userSpaceOnUse">
  <stop stop-color="#2FD7EE" stop-opacity="0.03"/>
  <stop offset="1" stop-color="white" stop-opacity="0"/>
  </linearGradient>
  <linearGradient id="paint1_linear_916_828" x1="54.0683" y1="27.8882" x2="54.0519" y2="67.3466" gradientUnits="userSpaceOnUse">
  <stop stop-color="#182A34"/>
  <stop offset="0.4497" stop-color="#0F1D27"/>
  <stop offset="0.994792" stop-color="#101922"/>
  </linearGradient>
  <linearGradient id="paint2_linear_916_828" x1="54" y1="24.0027" x2="54" y2="67.3465" gradientUnits="userSpaceOnUse">
  <stop offset="0.265625" stop-color="#63E3FF"/>
  <stop offset="0.609375" stop-color="#75ECEA"/>
  <stop offset="1" stop-color="#004F59"/>
  </linearGradient>
  <linearGradient id="paint3_linear_916_828" x1="53.9718" y1="33.113" x2="53.9718" y2="45.6399" gradientUnits="userSpaceOnUse">
  <stop stop-color="#B1F8F3"/>
  <stop offset="1" stop-color="#6CDCFF"/>
  </linearGradient>
  <linearGradient id="paint4_linear_916_828" x1="400.994" y1="-35.0063" x2="400.994" y2="167.523" gradientUnits="userSpaceOnUse">
  <stop stop-color="white" stop-opacity="0.03"/>
  <stop offset="1" stop-color="white" stop-opacity="0"/>
  </linearGradient>
  <linearGradient id="paint5_linear_916_828" x1="401.176" y1="10.3653" x2="401.132" y2="115.6" gradientUnits="userSpaceOnUse">
  <stop stop-color="#36213D"/>
  <stop offset="0.814917" stop-color="#0C151C"/>
  </linearGradient>
  <linearGradient id="paint6_linear_916_828" x1="400.994" y1="0.00268555" x2="400.994" y2="115.6" gradientUnits="userSpaceOnUse">
  <stop offset="0.0834151" stop-color="#3EB4E7"/>
  <stop offset="0.328754" stop-color="#75ECEA"/>
  <stop offset="1" stop-color="#004F59"/>
  </linearGradient>
  <linearGradient id="paint7_linear_916_828" x1="400.882" y1="24.0964" x2="400.882" y2="55.3798" gradientUnits="userSpaceOnUse">
  <stop stop-color="#D895C1"/>
  <stop offset="1" stop-color="#9053C0"/>
  </linearGradient>
  <linearGradient id="paint8_linear_916_828" x1="239.13" y1="63.2151" x2="238.936" y2="399.602" gradientUnits="userSpaceOnUse">
  <stop stop-color="#192D3A"/>
  <stop offset="0.4497" stop-color="#081118"/>
  <stop offset="0.994792" stop-color="#050C13"/>
  </linearGradient>
  <linearGradient id="paint9_linear_916_828" x1="255.582" y1="172.347" x2="257.939" y2="221.546" gradientUnits="userSpaceOnUse">
  <stop offset="0.645495" stop-color="#93EFF9"/>
  <stop offset="1" stop-color="#6CE5FF"/>
  </linearGradient>
  <linearGradient id="paint10_linear_916_828" x1="387.979" y1="243.888" x2="387.979" y2="383.393" gradientUnits="userSpaceOnUse">
  <stop stop-color="white" stop-opacity="0.03"/>
  <stop offset="1" stop-color="white" stop-opacity="0"/>
  </linearGradient>
  <linearGradient id="paint11_linear_916_828" x1="388.104" y1="275.141" x2="388.074" y2="347.628" gradientUnits="userSpaceOnUse">
  <stop stop-color="#393821"/>
  <stop offset="0.814917" stop-color="#0C141C"/>
  </linearGradient>
  <linearGradient id="paint12_linear_916_828" x1="387.979" y1="268.003" x2="387.979" y2="347.628" gradientUnits="userSpaceOnUse">
  <stop offset="0.0834151" stop-color="#3EB4E7"/>
  <stop offset="0.328754" stop-color="#75ECEA"/>
  <stop offset="1" stop-color="#004F59"/>
  </linearGradient>
  <linearGradient id="paint13_linear_916_828" x1="403.972" y1="276.044" x2="388.596" y2="321.961" gradientUnits="userSpaceOnUse">
  <stop stop-color="#FFF07B"/>
  <stop offset="1" stop-color="#FFCD6C"/>
  </linearGradient>
  <linearGradient id="paint14_linear_916_828" x1="82.284" y1="264.937" x2="82.284" y2="473.581" gradientUnits="userSpaceOnUse">
  <stop stop-color="white" stop-opacity="0.03"/>
  <stop offset="1" stop-color="white" stop-opacity="0"/>
  </linearGradient>
  <linearGradient id="paint15_linear_916_828" x1="82.4714" y1="311.678" x2="82.4263" y2="420.09" gradientUnits="userSpaceOnUse">
  <stop stop-color="#243228"/>
  <stop offset="0.814917" stop-color="#0C161E"/>
  </linearGradient>
  <linearGradient id="paint16_linear_916_828" x1="82.284" y1="301.003" x2="82.284" y2="420.09" gradientUnits="userSpaceOnUse">
  <stop offset="0.0834151" stop-color="#3EB4E7"/>
  <stop offset="0.328754" stop-color="#75ECEA"/>
  <stop offset="1" stop-color="#004F59"/>
  </linearGradient>
  <linearGradient id="paint17_linear_916_828" x1="81.7026" y1="322.039" x2="82.0161" y2="384.125" gradientUnits="userSpaceOnUse">
  <stop stop-color="#7DE487"/>
  <stop offset="1" stop-color="#00737A"/>
  </linearGradient>
  <linearGradient id="paint18_linear_916_828" x1="81.7026" y1="322.039" x2="82.0161" y2="384.125" gradientUnits="userSpaceOnUse">
  <stop stop-color="#7DE487"/>
  <stop offset="1" stop-color="#00737A"/>
  </linearGradient>
  </defs>
  </svg>
