<svg width="31" height="31" fill="none" xmlns="http://www.w3.org/2000/svg"><g filter="url(#a)"><circle cx="15.5" cy="15.5" r="14.822" fill="#0E1826" stroke="#03C2E0" stroke-width=".644"/></g><path d="m5.801 15.832 4.414 1.596v1.88l-5.996-2.54v-1.332l1.582.396Zm4.414-1.305-4.42 1.624-1.576.375v-1.333l5.996-2.54v1.874Zm6.295-4.331v10.105h-2.075V10.196h2.075Zm3.109 0v1.631h-8.245v-1.631h8.245Zm5.559 5.914-4.449-1.59v-1.867l6.045 2.54v1.34l-1.596-.424Zm-4.449 1.332 4.456-1.624 1.59-.382v1.332l-6.046 2.54v-1.866Z" fill="#fff"/><defs><filter id="a" x="-3.55" y="-3.55" width="38.101" height="38.1" filterUnits="userSpaceOnUse" color-interpolation-filters="sRGB"><feFlood flood-opacity="0" result="BackgroundImageFix"/><feGaussianBlur in="BackgroundImage" stdDeviation="1.953"/><feComposite in2="SourceAlpha" operator="in" result="effect1_backgroundBlur_173_799"/><feBlend in="SourceGraphic" in2="effect1_backgroundBlur_173_799" result="shape"/></filter></defs></svg>
